  0
SECTION
  2
BLOCKS
  0
ENDSEC
  0
SECTION
  2
ENTITIES
  0
LINE
  8
0
 10
-3
 11
-3
 20
-35
 21
-27
  0
LINE
  8
0
 10
-3
 11
0
 20
-27
 21
-27
  0
LINE
  8
0
 10
0
 11
0
 20
-27
 21
-23
  0
LINE
  8
0
 10
0
 11
17
 20
-23
 21
-23
  0
LINE
  8
0
 10
17
 11
17
 20
-23
 21
-40
  0
LINE
  8
0
 10
17
 11
0
 20
-40
 21
-40
  0
LINE
  8
0
 10
0
 11
0
 20
-40
 21
-35
  0
LINE
  8
0
 10
0
 11
-3
 20
-35
 21
-35
  0
LINE
  8
0
 10
-3
 11
-3
 20
12
 21
20
  0
LINE
  8
0
 10
-3
 11
0
 20
20
 21
20
  0
LINE
  8
0
 10
0
 11
0
 20
20
 21
58
  0
LINE
  8
0
 10
0
 11
-3
 20
58
 21
58
  0
LINE
  8
0
 10
-3
 11
-3
 20
58
 21
66
  0
LINE
  8
0
 10
-3
 11
0
 20
66
 21
66
  0
LINE
  8
0
 10
0
 11
0
 20
66
 21
104
  0
LINE
  8
0
 10
0
 11
-3
 20
104
 21
104
  0
LINE
  8
0
 10
-3
 11
-3
 20
104
 21
112
  0
LINE
  8
0
 10
-3
 11
0
 20
112
 21
112
  0
LINE
  8
0
 10
0
 11
0
 20
112
 21
146
  0
LINE
  8
0
 10
0
 11
424
 20
146
 21
146
  0
LINE
  8
0
 10
424
 11
424
 20
146
 21
112
  0
LINE
  8
0
 10
424
 11
427
 20
112
 21
112
  0
LINE
  8
0
 10
427
 11
427
 20
112
 21
104
  0
LINE
  8
0
 10
427
 11
424
 20
104
 21
104
  0
LINE
  8
0
 10
424
 11
424
 20
104
 21
66
  0
LINE
  8
0
 10
424
 11
427
 20
66
 21
66
  0
LINE
  8
0
 10
427
 11
427
 20
66
 21
58
  0
LINE
  8
0
 10
427
 11
424
 20
58
 21
58
  0
LINE
  8
0
 10
424
 11
424
 20
58
 21
20
  0
LINE
  8
0
 10
424
 11
427
 20
20
 21
20
  0
LINE
  8
0
 10
427
 11
427
 20
20
 21
12
  0
LINE
  8
0
 10
427
 11
424
 20
12
 21
12
  0
LINE
  8
0
 10
424
 11
424
 20
12
 21
0
  0
LINE
  8
0
 10
424
 11
0
 20
0
 21
0
  0
LINE
  8
0
 10
0
 11
0
 20
0
 21
12
  0
LINE
  8
0
 10
0
 11
-3
 20
12
 21
12
  0
LINE
  8
0
 10
0
 11
0
 20
150
 21
274
  0
LINE
  8
0
 10
0
 11
424
 20
274
 21
274
  0
LINE
  8
0
 10
424
 11
424
 20
274
 21
150
  0
LINE
  8
0
 10
424
 11
0
 20
150
 21
150
  0
LINE
  8
0
 10
12
 11
12
 20
12
 21
112
  0
LINE
  8
0
 10
12
 11
82
 20
112
 21
112
  0
LINE
  8
0
 10
82
 11
82
 20
112
 21
12
  0
LINE
  8
0
 10
82
 11
12
 20
12
 21
12
  0
LINE
  8
0
 10
12
 11
12
 20
162
 21
169.58
  0
LINE
  8
0
 10
12
 11
14.58
 20
169.58
 21
169.58
  0
LINE
  8
0
 10
14.58
 11
14.58
 20
169.58
 21
162
  0
LINE
  8
0
 10
14.58
 11
12
 20
162
 21
162
  0
LINE
  8
0
 10
12
 11
12
 20
208
 21
215.58
  0
LINE
  8
0
 10
12
 11
14.58
 20
215.58
 21
215.58
  0
LINE
  8
0
 10
14.58
 11
14.58
 20
215.58
 21
208
  0
LINE
  8
0
 10
14.58
 11
12
 20
208
 21
208
  0
LINE
  8
0
 10
12
 11
12
 20
254
 21
261.58
  0
LINE
  8
0
 10
12
 11
14.58
 20
261.58
 21
261.58
  0
LINE
  8
0
 10
14.58
 11
14.58
 20
261.58
 21
254
  0
LINE
  8
0
 10
14.58
 11
12
 20
254
 21
254
  0
LINE
  8
0
 10
20
 11
20
 20
-40
 21
-16
  0
LINE
  8
0
 10
20
 11
39
 20
-16
 21
-16
  0
LINE
  8
0
 10
39
 11
39
 20
-16
 21
-40
  0
LINE
  8
0
 10
39
 11
20
 20
-40
 21
-40
  0
LINE
  8
0
 10
28
 11
28
 20
-32
 21
-24.42
  0
LINE
  8
0
 10
28
 11
30.58
 20
-24.42
 21
-24.42
  0
LINE
  8
0
 10
30.58
 11
30.58
 20
-24.42
 21
-32
  0
LINE
  8
0
 10
30.58
 11
28
 20
-32
 21
-32
  0
LINE
  8
0
 10
38.5
 11
38.5
 20
124
 21
134
  0
LINE
  8
0
 10
38.5
 11
55.5
 20
134
 21
134
  0
LINE
  8
0
 10
55.5
 11
55.5
 20
134
 21
124
  0
LINE
  8
0
 10
55.5
 11
38.5
 20
124
 21
124
  0
LINE
  8
0
 10
94
 11
94
 20
12
 21
112
  0
LINE
  8
0
 10
94
 11
164
 20
112
 21
112
  0
LINE
  8
0
 10
164
 11
164
 20
112
 21
12
  0
LINE
  8
0
 10
164
 11
94
 20
12
 21
12
  0
LINE
  8
0
 10
120.5
 11
120.5
 20
124
 21
134
  0
LINE
  8
0
 10
120.5
 11
137.5
 20
134
 21
134
  0
LINE
  8
0
 10
137.5
 11
137.5
 20
134
 21
124
  0
LINE
  8
0
 10
137.5
 11
120.5
 20
124
 21
124
  0
LINE
  8
0
 10
176
 11
176
 20
12
 21
112
  0
LINE
  8
0
 10
176
 11
246
 20
112
 21
112
  0
LINE
  8
0
 10
246
 11
246
 20
112
 21
12
  0
LINE
  8
0
 10
246
 11
176
 20
12
 21
12
  0
LINE
  8
0
 10
202.5
 11
202.5
 20
124
 21
134
  0
LINE
  8
0
 10
202.5
 11
219.5
 20
134
 21
134
  0
LINE
  8
0
 10
219.5
 11
219.5
 20
134
 21
124
  0
LINE
  8
0
 10
219.5
 11
202.5
 20
124
 21
124
  0
LINE
  8
0
 10
258
 11
258
 20
12
 21
112
  0
LINE
  8
0
 10
258
 11
328
 20
112
 21
112
  0
LINE
  8
0
 10
328
 11
328
 20
112
 21
12
  0
LINE
  8
0
 10
328
 11
258
 20
12
 21
12
  0
LINE
  8
0
 10
284.5
 11
284.5
 20
124
 21
134
  0
LINE
  8
0
 10
284.5
 11
301.5
 20
134
 21
134
  0
LINE
  8
0
 10
301.5
 11
301.5
 20
134
 21
124
  0
LINE
  8
0
 10
301.5
 11
284.5
 20
124
 21
124
  0
LINE
  8
0
 10
340
 11
340
 20
12
 21
112
  0
LINE
  8
0
 10
340
 11
410
 20
112
 21
112
  0
LINE
  8
0
 10
410
 11
410
 20
112
 21
12
  0
LINE
  8
0
 10
410
 11
340
 20
12
 21
12
  0
LINE
  8
0
 10
366.5
 11
366.5
 20
124
 21
134
  0
LINE
  8
0
 10
366.5
 11
383.5
 20
134
 21
134
  0
LINE
  8
0
 10
383.5
 11
383.5
 20
134
 21
124
  0
LINE
  8
0
 10
383.5
 11
366.5
 20
124
 21
124
  0
LINE
  8
0
 10
409
 11
409
 20
162
 21
169.58
  0
LINE
  8
0
 10
409
 11
411.58
 20
169.58
 21
169.58
  0
LINE
  8
0
 10
411.58
 11
411.58
 20
169.58
 21
162
  0
LINE
  8
0
 10
411.58
 11
409
 20
162
 21
162
  0
LINE
  8
0
 10
409
 11
409
 20
208
 21
215.58
  0
LINE
  8
0
 10
409
 11
411.58
 20
215.58
 21
215.58
  0
LINE
  8
0
 10
411.58
 11
411.58
 20
215.58
 21
208
  0
LINE
  8
0
 10
411.58
 11
409
 20
208
 21
208
  0
LINE
  8
0
 10
409
 11
409
 20
254
 21
261.58
  0
LINE
  8
0
 10
409
 11
411.58
 20
261.58
 21
261.58
  0
LINE
  8
0
 10
411.58
 11
411.58
 20
261.58
 21
254
  0
LINE
  8
0
 10
411.58
 11
409
 20
254
 21
254
  0
ENDSEC
  0
SECTION
  2
OBJECTS
  0
DICTIONARY
  0
ENDSEC
  0
EOF
