  0
SECTION
  2
BLOCKS
  0
ENDSEC
  0
SECTION
  2
ENTITIES
  0
LINE
  8
0
 10
-2.8
 11
-2.8
 20
14.925
 21
30.075
  0
LINE
  8
0
 10
-2.8
 11
0
 20
30.075
 21
30.075
  0
LINE
  8
0
 10
0
 11
0
 20
30.075
 21
74.925
  0
LINE
  8
0
 10
0
 11
-2.8
 20
74.925
 21
74.925
  0
LINE
  8
0
 10
-2.8
 11
-2.8
 20
74.925
 21
90.075
  0
LINE
  8
0
 10
-2.8
 11
0
 20
90.075
 21
90.075
  0
LINE
  8
0
 10
0
 11
0
 20
90.075
 21
134.925
  0
LINE
  8
0
 10
0
 11
-2.8
 20
134.925
 21
134.925
  0
LINE
  8
0
 10
-2.8
 11
-2.8
 20
134.925
 21
150.075
  0
LINE
  8
0
 10
-2.8
 11
0
 20
150.075
 21
150.075
  0
LINE
  8
0
 10
0
 11
0
 20
150.075
 21
165
  0
LINE
  8
0
 10
0
 11
470
 20
165
 21
165
  0
LINE
  8
0
 10
470
 11
470
 20
165
 21
150.075
  0
LINE
  8
0
 10
470
 11
472.8
 20
150.075
 21
150.075
  0
LINE
  8
0
 10
472.8
 11
472.8
 20
150.075
 21
134.925
  0
LINE
  8
0
 10
472.8
 11
470
 20
134.925
 21
134.925
  0
LINE
  8
0
 10
470
 11
470
 20
134.925
 21
90.075
  0
LINE
  8
0
 10
470
 11
472.8
 20
90.075
 21
90.075
  0
LINE
  8
0
 10
472.8
 11
472.8
 20
90.075
 21
74.925
  0
LINE
  8
0
 10
472.8
 11
470
 20
74.925
 21
74.925
  0
LINE
  8
0
 10
470
 11
470
 20
74.925
 21
30.075
  0
LINE
  8
0
 10
470
 11
472.8
 20
30.075
 21
30.075
  0
LINE
  8
0
 10
472.8
 11
472.8
 20
30.075
 21
14.925
  0
LINE
  8
0
 10
472.8
 11
470
 20
14.925
 21
14.925
  0
LINE
  8
0
 10
470
 11
470
 20
14.925
 21
0
  0
LINE
  8
0
 10
470
 11
0
 20
0
 21
0
  0
LINE
  8
0
 10
0
 11
0
 20
0
 21
14.925
  0
LINE
  8
0
 10
0
 11
-2.8
 20
14.925
 21
14.925
  0
LINE
  8
0
 10
-2.8
 11
-2.8
 20
196.425
 21
211.575
  0
LINE
  8
0
 10
-2.8
 11
0
 20
211.575
 21
211.575
  0
LINE
  8
0
 10
0
 11
0
 20
211.575
 21
256.425
  0
LINE
  8
0
 10
0
 11
-2.8
 20
256.425
 21
256.425
  0
LINE
  8
0
 10
-2.8
 11
-2.8
 20
256.425
 21
271.575
  0
LINE
  8
0
 10
-2.8
 11
0
 20
271.575
 21
271.575
  0
LINE
  8
0
 10
0
 11
0
 20
271.575
 21
316.425
  0
LINE
  8
0
 10
0
 11
-2.8
 20
316.425
 21
316.425
  0
LINE
  8
0
 10
-2.8
 11
-2.8
 20
316.425
 21
331.575
  0
LINE
  8
0
 10
-2.8
 11
0
 20
331.575
 21
331.575
  0
LINE
  8
0
 10
0
 11
0
 20
331.575
 21
346.5
  0
LINE
  8
0
 10
0
 11
470
 20
346.5
 21
346.5
  0
LINE
  8
0
 10
470
 11
470
 20
346.5
 21
331.575
  0
LINE
  8
0
 10
470
 11
472.8
 20
331.575
 21
331.575
  0
LINE
  8
0
 10
472.8
 11
472.8
 20
331.575
 21
316.425
  0
LINE
  8
0
 10
472.8
 11
470
 20
316.425
 21
316.425
  0
LINE
  8
0
 10
470
 11
470
 20
316.425
 21
271.575
  0
LINE
  8
0
 10
470
 11
472.8
 20
271.575
 21
271.575
  0
LINE
  8
0
 10
472.8
 11
472.8
 20
271.575
 21
256.425
  0
LINE
  8
0
 10
472.8
 11
470
 20
256.425
 21
256.425
  0
LINE
  8
0
 10
470
 11
470
 20
256.425
 21
211.575
  0
LINE
  8
0
 10
470
 11
472.8
 20
211.575
 21
211.575
  0
LINE
  8
0
 10
472.8
 11
472.8
 20
211.575
 21
196.425
  0
LINE
  8
0
 10
472.8
 11
470
 20
196.425
 21
196.425
  0
LINE
  8
0
 10
470
 11
470
 20
196.425
 21
181.5
  0
LINE
  8
0
 10
470
 11
0
 20
181.5
 21
181.5
  0
LINE
  8
0
 10
0
 11
0
 20
181.5
 21
196.425
  0
LINE
  8
0
 10
0
 11
-2.8
 20
196.425
 21
196.425
  0
LINE
  8
0
 10
47.575
 11
47.575
 20
5.075
 21
7.725
  0
LINE
  8
0
 10
47.575
 11
62.425
 20
7.725
 21
7.725
  0
LINE
  8
0
 10
62.425
 11
62.425
 20
7.725
 21
5.075
  0
LINE
  8
0
 10
62.425
 11
47.575
 20
5.075
 21
5.075
  0
LINE
  8
0
 10
47.575
 11
47.575
 20
85.075
 21
87.725
  0
LINE
  8
0
 10
47.575
 11
62.425
 20
87.725
 21
87.725
  0
LINE
  8
0
 10
62.425
 11
62.425
 20
87.725
 21
85.075
  0
LINE
  8
0
 10
62.425
 11
47.575
 20
85.075
 21
85.075
  0
LINE
  8
0
 10
47.575
 11
47.575
 20
186.575
 21
189.225
  0
LINE
  8
0
 10
47.575
 11
62.425
 20
189.225
 21
189.225
  0
LINE
  8
0
 10
62.425
 11
62.425
 20
189.225
 21
186.575
  0
LINE
  8
0
 10
62.425
 11
47.575
 20
186.575
 21
186.575
  0
LINE
  8
0
 10
47.575
 11
47.575
 20
266.575
 21
269.225
  0
LINE
  8
0
 10
47.575
 11
62.425
 20
269.225
 21
269.225
  0
LINE
  8
0
 10
62.425
 11
62.425
 20
269.225
 21
266.575
  0
LINE
  8
0
 10
62.425
 11
47.575
 20
266.575
 21
266.575
  0
LINE
  8
0
 10
107.575
 11
107.575
 20
5.075
 21
7.725
  0
LINE
  8
0
 10
107.575
 11
122.425
 20
7.725
 21
7.725
  0
LINE
  8
0
 10
122.425
 11
122.425
 20
7.725
 21
5.075
  0
LINE
  8
0
 10
122.425
 11
107.575
 20
5.075
 21
5.075
  0
LINE
  8
0
 10
107.575
 11
107.575
 20
85.075
 21
87.725
  0
LINE
  8
0
 10
107.575
 11
122.425
 20
87.725
 21
87.725
  0
LINE
  8
0
 10
122.425
 11
122.425
 20
87.725
 21
85.075
  0
LINE
  8
0
 10
122.425
 11
107.575
 20
85.075
 21
85.075
  0
LINE
  8
0
 10
107.575
 11
107.575
 20
186.575
 21
189.225
  0
LINE
  8
0
 10
107.575
 11
122.425
 20
189.225
 21
189.225
  0
LINE
  8
0
 10
122.425
 11
122.425
 20
189.225
 21
186.575
  0
LINE
  8
0
 10
122.425
 11
107.575
 20
186.575
 21
186.575
  0
LINE
  8
0
 10
107.575
 11
107.575
 20
266.575
 21
269.225
  0
LINE
  8
0
 10
107.575
 11
122.425
 20
269.225
 21
269.225
  0
LINE
  8
0
 10
122.425
 11
122.425
 20
269.225
 21
266.575
  0
LINE
  8
0
 10
122.425
 11
107.575
 20
266.575
 21
266.575
  0
LINE
  8
0
 10
167.575
 11
167.575
 20
5.075
 21
7.725
  0
LINE
  8
0
 10
167.575
 11
182.425
 20
7.725
 21
7.725
  0
LINE
  8
0
 10
182.425
 11
182.425
 20
7.725
 21
5.075
  0
LINE
  8
0
 10
182.425
 11
167.575
 20
5.075
 21
5.075
  0
LINE
  8
0
 10
167.575
 11
167.575
 20
85.075
 21
87.725
  0
LINE
  8
0
 10
167.575
 11
182.425
 20
87.725
 21
87.725
  0
LINE
  8
0
 10
182.425
 11
182.425
 20
87.725
 21
85.075
  0
LINE
  8
0
 10
182.425
 11
167.575
 20
85.075
 21
85.075
  0
LINE
  8
0
 10
167.575
 11
167.575
 20
186.575
 21
189.225
  0
LINE
  8
0
 10
167.575
 11
182.425
 20
189.225
 21
189.225
  0
LINE
  8
0
 10
182.425
 11
182.425
 20
189.225
 21
186.575
  0
LINE
  8
0
 10
182.425
 11
167.575
 20
186.575
 21
186.575
  0
LINE
  8
0
 10
167.575
 11
167.575
 20
266.575
 21
269.225
  0
LINE
  8
0
 10
167.575
 11
182.425
 20
269.225
 21
269.225
  0
LINE
  8
0
 10
182.425
 11
182.425
 20
269.225
 21
266.575
  0
LINE
  8
0
 10
182.425
 11
167.575
 20
266.575
 21
266.575
  0
LINE
  8
0
 10
227.575
 11
227.575
 20
5.075
 21
7.725
  0
LINE
  8
0
 10
227.575
 11
242.425
 20
7.725
 21
7.725
  0
LINE
  8
0
 10
242.425
 11
242.425
 20
7.725
 21
5.075
  0
LINE
  8
0
 10
242.425
 11
227.575
 20
5.075
 21
5.075
  0
LINE
  8
0
 10
227.575
 11
227.575
 20
85.075
 21
87.725
  0
LINE
  8
0
 10
227.575
 11
242.425
 20
87.725
 21
87.725
  0
LINE
  8
0
 10
242.425
 11
242.425
 20
87.725
 21
85.075
  0
LINE
  8
0
 10
242.425
 11
227.575
 20
85.075
 21
85.075
  0
LINE
  8
0
 10
227.575
 11
227.575
 20
186.575
 21
189.225
  0
LINE
  8
0
 10
227.575
 11
242.425
 20
189.225
 21
189.225
  0
LINE
  8
0
 10
242.425
 11
242.425
 20
189.225
 21
186.575
  0
LINE
  8
0
 10
242.425
 11
227.575
 20
186.575
 21
186.575
  0
LINE
  8
0
 10
227.575
 11
227.575
 20
266.575
 21
269.225
  0
LINE
  8
0
 10
227.575
 11
242.425
 20
269.225
 21
269.225
  0
LINE
  8
0
 10
242.425
 11
242.425
 20
269.225
 21
266.575
  0
LINE
  8
0
 10
242.425
 11
227.575
 20
266.575
 21
266.575
  0
LINE
  8
0
 10
287.575
 11
287.575
 20
5.075
 21
7.725
  0
LINE
  8
0
 10
287.575
 11
302.425
 20
7.725
 21
7.725
  0
LINE
  8
0
 10
302.425
 11
302.425
 20
7.725
 21
5.075
  0
LINE
  8
0
 10
302.425
 11
287.575
 20
5.075
 21
5.075
  0
LINE
  8
0
 10
287.575
 11
287.575
 20
85.075
 21
87.725
  0
LINE
  8
0
 10
287.575
 11
302.425
 20
87.725
 21
87.725
  0
LINE
  8
0
 10
302.425
 11
302.425
 20
87.725
 21
85.075
  0
LINE
  8
0
 10
302.425
 11
287.575
 20
85.075
 21
85.075
  0
LINE
  8
0
 10
287.575
 11
287.575
 20
186.575
 21
189.225
  0
LINE
  8
0
 10
287.575
 11
302.425
 20
189.225
 21
189.225
  0
LINE
  8
0
 10
302.425
 11
302.425
 20
189.225
 21
186.575
  0
LINE
  8
0
 10
302.425
 11
287.575
 20
186.575
 21
186.575
  0
LINE
  8
0
 10
287.575
 11
287.575
 20
266.575
 21
269.225
  0
LINE
  8
0
 10
287.575
 11
302.425
 20
269.225
 21
269.225
  0
LINE
  8
0
 10
302.425
 11
302.425
 20
269.225
 21
266.575
  0
LINE
  8
0
 10
302.425
 11
287.575
 20
266.575
 21
266.575
  0
LINE
  8
0
 10
347.575
 11
347.575
 20
5.075
 21
7.725
  0
LINE
  8
0
 10
347.575
 11
362.425
 20
7.725
 21
7.725
  0
LINE
  8
0
 10
362.425
 11
362.425
 20
7.725
 21
5.075
  0
LINE
  8
0
 10
362.425
 11
347.575
 20
5.075
 21
5.075
  0
LINE
  8
0
 10
347.575
 11
347.575
 20
85.075
 21
87.725
  0
LINE
  8
0
 10
347.575
 11
362.425
 20
87.725
 21
87.725
  0
LINE
  8
0
 10
362.425
 11
362.425
 20
87.725
 21
85.075
  0
LINE
  8
0
 10
362.425
 11
347.575
 20
85.075
 21
85.075
  0
LINE
  8
0
 10
347.575
 11
347.575
 20
186.575
 21
189.225
  0
LINE
  8
0
 10
347.575
 11
362.425
 20
189.225
 21
189.225
  0
LINE
  8
0
 10
362.425
 11
362.425
 20
189.225
 21
186.575
  0
LINE
  8
0
 10
362.425
 11
347.575
 20
186.575
 21
186.575
  0
LINE
  8
0
 10
347.575
 11
347.575
 20
266.575
 21
269.225
  0
LINE
  8
0
 10
347.575
 11
362.425
 20
269.225
 21
269.225
  0
LINE
  8
0
 10
362.425
 11
362.425
 20
269.225
 21
266.575
  0
LINE
  8
0
 10
362.425
 11
347.575
 20
266.575
 21
266.575
  0
LINE
  8
0
 10
407.575
 11
407.575
 20
5.075
 21
7.725
  0
LINE
  8
0
 10
407.575
 11
422.425
 20
7.725
 21
7.725
  0
LINE
  8
0
 10
422.425
 11
422.425
 20
7.725
 21
5.075
  0
LINE
  8
0
 10
422.425
 11
407.575
 20
5.075
 21
5.075
  0
LINE
  8
0
 10
407.575
 11
407.575
 20
85.075
 21
87.725
  0
LINE
  8
0
 10
407.575
 11
422.425
 20
87.725
 21
87.725
  0
LINE
  8
0
 10
422.425
 11
422.425
 20
87.725
 21
85.075
  0
LINE
  8
0
 10
422.425
 11
407.575
 20
85.075
 21
85.075
  0
LINE
  8
0
 10
407.575
 11
407.575
 20
186.575
 21
189.225
  0
LINE
  8
0
 10
407.575
 11
422.425
 20
189.225
 21
189.225
  0
LINE
  8
0
 10
422.425
 11
422.425
 20
189.225
 21
186.575
  0
LINE
  8
0
 10
422.425
 11
407.575
 20
186.575
 21
186.575
  0
LINE
  8
0
 10
407.575
 11
407.575
 20
266.575
 21
269.225
  0
LINE
  8
0
 10
407.575
 11
422.425
 20
269.225
 21
269.225
  0
LINE
  8
0
 10
422.425
 11
422.425
 20
269.225
 21
266.575
  0
LINE
  8
0
 10
422.425
 11
407.575
 20
266.575
 21
266.575
  0
LINE
  8
0
 10
493.5
 11
493.5
 20
0
 21
165
  0
LINE
  8
0
 10
493.5
 11
565.1
 20
165
 21
165
  0
LINE
  8
0
 10
565.1
 11
565.1
 20
165
 21
350
  0
LINE
  8
0
 10
565.1
 11
587.5
 20
350
 21
350
  0
LINE
  8
0
 10
587.5
 11
587.5
 20
350
 21
165
  0
LINE
  8
0
 10
587.5
 11
659.1
 20
165
 21
165
  0
LINE
  8
0
 10
659.1
 11
659.1
 20
165
 21
0
  0
LINE
  8
0
 10
659.1
 11
493.5
 20
0
 21
0
  0
LINE
  8
0
 10
498.575
 11
498.575
 20
15.075
 21
29.925
  0
LINE
  8
0
 10
498.575
 11
501.225
 20
29.925
 21
29.925
  0
LINE
  8
0
 10
501.225
 11
501.225
 20
29.925
 21
15.075
  0
LINE
  8
0
 10
501.225
 11
498.575
 20
15.075
 21
15.075
  0
LINE
  8
0
 10
498.575
 11
498.575
 20
75.075
 21
89.925
  0
LINE
  8
0
 10
498.575
 11
501.225
 20
89.925
 21
89.925
  0
LINE
  8
0
 10
501.225
 11
501.225
 20
89.925
 21
75.075
  0
LINE
  8
0
 10
501.225
 11
498.575
 20
75.075
 21
75.075
  0
LINE
  8
0
 10
498.575
 11
498.575
 20
135.075
 21
149.925
  0
LINE
  8
0
 10
498.575
 11
501.225
 20
149.925
 21
149.925
  0
LINE
  8
0
 10
501.225
 11
501.225
 20
149.925
 21
135.075
  0
LINE
  8
0
 10
501.225
 11
498.575
 20
135.075
 21
135.075
  0
LINE
  8
0
 10
508.875
 11
508.875
 20
5.075
 21
7.725
  0
LINE
  8
0
 10
508.875
 11
523.725
 20
7.725
 21
7.725
  0
LINE
  8
0
 10
523.725
 11
523.725
 20
7.725
 21
5.075
  0
LINE
  8
0
 10
523.725
 11
508.875
 20
5.075
 21
5.075
  0
LINE
  8
0
 10
508.875
 11
508.875
 20
85.075
 21
87.725
  0
LINE
  8
0
 10
508.875
 11
523.725
 20
87.725
 21
87.725
  0
LINE
  8
0
 10
523.725
 11
523.725
 20
87.725
 21
85.075
  0
LINE
  8
0
 10
523.725
 11
508.875
 20
85.075
 21
85.075
  0
LINE
  8
0
 10
568.875
 11
568.875
 20
5.075
 21
7.725
  0
LINE
  8
0
 10
568.875
 11
583.725
 20
7.725
 21
7.725
  0
LINE
  8
0
 10
583.725
 11
583.725
 20
7.725
 21
5.075
  0
LINE
  8
0
 10
583.725
 11
568.875
 20
5.075
 21
5.075
  0
LINE
  8
0
 10
568.875
 11
568.875
 20
85.075
 21
87.725
  0
LINE
  8
0
 10
568.875
 11
583.725
 20
87.725
 21
87.725
  0
LINE
  8
0
 10
583.725
 11
583.725
 20
87.725
 21
85.075
  0
LINE
  8
0
 10
583.725
 11
568.875
 20
85.075
 21
85.075
  0
LINE
  8
0
 10
569.1
 11
583.5
 20
346
 21
346
  0
LINE
  8
0
 10
583.5
 11
582.9
 20
346
 21
339.15
  0
LINE
  8
0
 10
582.9
 11
569.7
 20
339.15
 21
339.15
  0
LINE
  8
0
 10
569.7
 11
569.1
 20
339.15
 21
346
  0
LINE
  8
0
 10
628.875
 11
628.875
 20
5.075
 21
7.725
  0
LINE
  8
0
 10
628.875
 11
643.725
 20
7.725
 21
7.725
  0
LINE
  8
0
 10
643.725
 11
643.725
 20
7.725
 21
5.075
  0
LINE
  8
0
 10
643.725
 11
628.875
 20
5.075
 21
5.075
  0
LINE
  8
0
 10
628.875
 11
628.875
 20
85.075
 21
87.725
  0
LINE
  8
0
 10
628.875
 11
643.725
 20
87.725
 21
87.725
  0
LINE
  8
0
 10
643.725
 11
643.725
 20
87.725
 21
85.075
  0
LINE
  8
0
 10
643.725
 11
628.875
 20
85.075
 21
85.075
  0
LINE
  8
0
 10
651.375
 11
651.375
 20
15.075
 21
29.925
  0
LINE
  8
0
 10
651.375
 11
654.025
 20
29.925
 21
29.925
  0
LINE
  8
0
 10
654.025
 11
654.025
 20
29.925
 21
15.075
  0
LINE
  8
0
 10
654.025
 11
651.375
 20
15.075
 21
15.075
  0
LINE
  8
0
 10
651.375
 11
651.375
 20
75.075
 21
89.925
  0
LINE
  8
0
 10
651.375
 11
654.025
 20
89.925
 21
89.925
  0
LINE
  8
0
 10
654.025
 11
654.025
 20
89.925
 21
75.075
  0
LINE
  8
0
 10
654.025
 11
651.375
 20
75.075
 21
75.075
  0
LINE
  8
0
 10
651.375
 11
651.375
 20
135.075
 21
149.925
  0
LINE
  8
0
 10
651.375
 11
654.025
 20
149.925
 21
149.925
  0
LINE
  8
0
 10
654.025
 11
654.025
 20
149.925
 21
135.075
  0
LINE
  8
0
 10
654.025
 11
651.375
 20
135.075
 21
135.075
  0
LINE
  8
0
 10
673.5
 11
673.5
 20
0
 21
165
  0
LINE
  8
0
 10
673.5
 11
745.1
 20
165
 21
165
  0
LINE
  8
0
 10
745.1
 11
745.1
 20
165
 21
350
  0
LINE
  8
0
 10
745.1
 11
767.5
 20
350
 21
350
  0
LINE
  8
0
 10
767.5
 11
767.5
 20
350
 21
165
  0
LINE
  8
0
 10
767.5
 11
839.1
 20
165
 21
165
  0
LINE
  8
0
 10
839.1
 11
839.1
 20
165
 21
0
  0
LINE
  8
0
 10
839.1
 11
673.5
 20
0
 21
0
  0
LINE
  8
0
 10
678.575
 11
678.575
 20
15.075
 21
29.925
  0
LINE
  8
0
 10
678.575
 11
681.225
 20
29.925
 21
29.925
  0
LINE
  8
0
 10
681.225
 11
681.225
 20
29.925
 21
15.075
  0
LINE
  8
0
 10
681.225
 11
678.575
 20
15.075
 21
15.075
  0
LINE
  8
0
 10
678.575
 11
678.575
 20
75.075
 21
89.925
  0
LINE
  8
0
 10
678.575
 11
681.225
 20
89.925
 21
89.925
  0
LINE
  8
0
 10
681.225
 11
681.225
 20
89.925
 21
75.075
  0
LINE
  8
0
 10
681.225
 11
678.575
 20
75.075
 21
75.075
  0
LINE
  8
0
 10
678.575
 11
678.575
 20
135.075
 21
149.925
  0
LINE
  8
0
 10
678.575
 11
681.225
 20
149.925
 21
149.925
  0
LINE
  8
0
 10
681.225
 11
681.225
 20
149.925
 21
135.075
  0
LINE
  8
0
 10
681.225
 11
678.575
 20
135.075
 21
135.075
  0
LINE
  8
0
 10
688.875
 11
688.875
 20
5.075
 21
7.725
  0
LINE
  8
0
 10
688.875
 11
703.725
 20
7.725
 21
7.725
  0
LINE
  8
0
 10
703.725
 11
703.725
 20
7.725
 21
5.075
  0
LINE
  8
0
 10
703.725
 11
688.875
 20
5.075
 21
5.075
  0
LINE
  8
0
 10
688.875
 11
688.875
 20
85.075
 21
87.725
  0
LINE
  8
0
 10
688.875
 11
703.725
 20
87.725
 21
87.725
  0
LINE
  8
0
 10
703.725
 11
703.725
 20
87.725
 21
85.075
  0
LINE
  8
0
 10
703.725
 11
688.875
 20
85.075
 21
85.075
  0
LINE
  8
0
 10
748.875
 11
748.875
 20
5.075
 21
7.725
  0
LINE
  8
0
 10
748.875
 11
763.725
 20
7.725
 21
7.725
  0
LINE
  8
0
 10
763.725
 11
763.725
 20
7.725
 21
5.075
  0
LINE
  8
0
 10
763.725
 11
748.875
 20
5.075
 21
5.075
  0
LINE
  8
0
 10
748.875
 11
748.875
 20
85.075
 21
87.725
  0
LINE
  8
0
 10
748.875
 11
763.725
 20
87.725
 21
87.725
  0
LINE
  8
0
 10
763.725
 11
763.725
 20
87.725
 21
85.075
  0
LINE
  8
0
 10
763.725
 11
748.875
 20
85.075
 21
85.075
  0
LINE
  8
0
 10
749.1
 11
763.5
 20
346
 21
346
  0
LINE
  8
0
 10
763.5
 11
762.9
 20
346
 21
339.15
  0
LINE
  8
0
 10
762.9
 11
749.7
 20
339.15
 21
339.15
  0
LINE
  8
0
 10
749.7
 11
749.1
 20
339.15
 21
346
  0
LINE
  8
0
 10
808.875
 11
808.875
 20
5.075
 21
7.725
  0
LINE
  8
0
 10
808.875
 11
823.725
 20
7.725
 21
7.725
  0
LINE
  8
0
 10
823.725
 11
823.725
 20
7.725
 21
5.075
  0
LINE
  8
0
 10
823.725
 11
808.875
 20
5.075
 21
5.075
  0
LINE
  8
0
 10
808.875
 11
808.875
 20
85.075
 21
87.725
  0
LINE
  8
0
 10
808.875
 11
823.725
 20
87.725
 21
87.725
  0
LINE
  8
0
 10
823.725
 11
823.725
 20
87.725
 21
85.075
  0
LINE
  8
0
 10
823.725
 11
808.875
 20
85.075
 21
85.075
  0
LINE
  8
0
 10
831.375
 11
831.375
 20
15.075
 21
29.925
  0
LINE
  8
0
 10
831.375
 11
834.025
 20
29.925
 21
29.925
  0
LINE
  8
0
 10
834.025
 11
834.025
 20
29.925
 21
15.075
  0
LINE
  8
0
 10
834.025
 11
831.375
 20
15.075
 21
15.075
  0
LINE
  8
0
 10
831.375
 11
831.375
 20
75.075
 21
89.925
  0
LINE
  8
0
 10
831.375
 11
834.025
 20
89.925
 21
89.925
  0
LINE
  8
0
 10
834.025
 11
834.025
 20
89.925
 21
75.075
  0
LINE
  8
0
 10
834.025
 11
831.375
 20
75.075
 21
75.075
  0
LINE
  8
0
 10
831.375
 11
831.375
 20
135.075
 21
149.925
  0
LINE
  8
0
 10
831.375
 11
834.025
 20
149.925
 21
149.925
  0
LINE
  8
0
 10
834.025
 11
834.025
 20
149.925
 21
135.075
  0
LINE
  8
0
 10
834.025
 11
831.375
 20
135.075
 21
135.075
  0
LINE
  8
0
 10
845.7
 11
845.7
 20
301.5
 21
349.3
  0
LINE
  8
0
 10
845.7
 11
1291.3
 20
349.3
 21
349.3
  0
LINE
  8
0
 10
1291.3
 11
1291.3
 20
349.3
 21
301.5
  0
LINE
  8
0
 10
1291.3
 11
845.7
 20
301.5
 21
301.5
  0
LINE
  8
0
 10
850.7
 11
850.7
 20
7.425
 21
22.575
  0
LINE
  8
0
 10
850.7
 11
853.5
 20
22.575
 21
22.575
  0
LINE
  8
0
 10
853.5
 11
853.5
 20
22.575
 21
67.425
  0
LINE
  8
0
 10
853.5
 11
850.7
 20
67.425
 21
67.425
  0
LINE
  8
0
 10
850.7
 11
850.7
 20
67.425
 21
82.575
  0
LINE
  8
0
 10
850.7
 11
853.5
 20
82.575
 21
82.575
  0
LINE
  8
0
 10
853.5
 11
853.5
 20
82.575
 21
127.425
  0
LINE
  8
0
 10
853.5
 11
850.7
 20
127.425
 21
127.425
  0
LINE
  8
0
 10
850.7
 11
850.7
 20
127.425
 21
142.575
  0
LINE
  8
0
 10
850.7
 11
853.5
 20
142.575
 21
142.575
  0
LINE
  8
0
 10
853.5
 11
853.5
 20
142.575
 21
150
  0
LINE
  8
0
 10
853.5
 11
900.925
 20
150
 21
150
  0
LINE
  8
0
 10
900.925
 11
900.925
 20
150
 21
152.8
  0
LINE
  8
0
 10
900.925
 11
916.075
 20
152.8
 21
152.8
  0
LINE
  8
0
 10
916.075
 11
916.075
 20
152.8
 21
150
  0
LINE
  8
0
 10
916.075
 11
960.925
 20
150
 21
150
  0
LINE
  8
0
 10
960.925
 11
960.925
 20
150
 21
152.8
  0
LINE
  8
0
 10
960.925
 11
976.075
 20
152.8
 21
152.8
  0
LINE
  8
0
 10
976.075
 11
976.075
 20
152.8
 21
150
  0
LINE
  8
0
 10
976.075
 11
1020.93
 20
150
 21
150
  0
LINE
  8
0
 10
1020.93
 11
1020.93
 20
150
 21
152.8
  0
LINE
  8
0
 10
1020.93
 11
1036.08
 20
152.8
 21
152.8
  0
LINE
  8
0
 10
1036.08
 11
1036.08
 20
152.8
 21
150
  0
LINE
  8
0
 10
1036.08
 11
1080.92
 20
150
 21
150
  0
LINE
  8
0
 10
1080.92
 11
1080.92
 20
150
 21
152.8
  0
LINE
  8
0
 10
1080.92
 11
1096.08
 20
152.8
 21
152.8
  0
LINE
  8
0
 10
1096.08
 11
1096.08
 20
152.8
 21
150
  0
LINE
  8
0
 10
1096.08
 11
1140.92
 20
150
 21
150
  0
LINE
  8
0
 10
1140.92
 11
1140.92
 20
150
 21
152.8
  0
LINE
  8
0
 10
1140.92
 11
1156.08
 20
152.8
 21
152.8
  0
LINE
  8
0
 10
1156.08
 11
1156.08
 20
152.8
 21
150
  0
LINE
  8
0
 10
1156.08
 11
1200.92
 20
150
 21
150
  0
LINE
  8
0
 10
1200.92
 11
1200.92
 20
150
 21
152.8
  0
LINE
  8
0
 10
1200.92
 11
1216.08
 20
152.8
 21
152.8
  0
LINE
  8
0
 10
1216.08
 11
1216.08
 20
152.8
 21
150
  0
LINE
  8
0
 10
1216.08
 11
1260.92
 20
150
 21
150
  0
LINE
  8
0
 10
1260.92
 11
1260.92
 20
150
 21
152.8
  0
LINE
  8
0
 10
1260.92
 11
1276.08
 20
152.8
 21
152.8
  0
LINE
  8
0
 10
1276.08
 11
1276.08
 20
152.8
 21
150
  0
LINE
  8
0
 10
1276.08
 11
1323.5
 20
150
 21
150
  0
LINE
  8
0
 10
1323.5
 11
1323.5
 20
150
 21
142.575
  0
LINE
  8
0
 10
1323.5
 11
1326.3
 20
142.575
 21
142.575
  0
LINE
  8
0
 10
1326.3
 11
1326.3
 20
142.575
 21
127.425
  0
LINE
  8
0
 10
1326.3
 11
1323.5
 20
127.425
 21
127.425
  0
LINE
  8
0
 10
1323.5
 11
1323.5
 20
127.425
 21
82.575
  0
LINE
  8
0
 10
1323.5
 11
1326.3
 20
82.575
 21
82.575
  0
LINE
  8
0
 10
1326.3
 11
1326.3
 20
82.575
 21
67.425
  0
LINE
  8
0
 10
1326.3
 11
1323.5
 20
67.425
 21
67.425
  0
LINE
  8
0
 10
1323.5
 11
1323.5
 20
67.425
 21
22.575
  0
LINE
  8
0
 10
1323.5
 11
1326.3
 20
22.575
 21
22.575
  0
LINE
  8
0
 10
1326.3
 11
1326.3
 20
22.575
 21
7.425
  0
LINE
  8
0
 10
1326.3
 11
1323.5
 20
7.425
 21
7.425
  0
LINE
  8
0
 10
1323.5
 11
1323.5
 20
7.425
 21
0
  0
LINE
  8
0
 10
1323.5
 11
1276.08
 20
0
 21
0
  0
LINE
  8
0
 10
1276.08
 11
1276.08
 20
0
 21
-2.8
  0
LINE
  8
0
 10
1276.08
 11
1260.92
 20
-2.8
 21
-2.8
  0
LINE
  8
0
 10
1260.92
 11
1260.92
 20
-2.8
 21
0
  0
LINE
  8
0
 10
1260.92
 11
1216.08
 20
0
 21
0
  0
LINE
  8
0
 10
1216.08
 11
1216.08
 20
0
 21
-2.8
  0
LINE
  8
0
 10
1216.08
 11
1200.92
 20
-2.8
 21
-2.8
  0
LINE
  8
0
 10
1200.92
 11
1200.92
 20
-2.8
 21
0
  0
LINE
  8
0
 10
1200.92
 11
1156.08
 20
0
 21
0
  0
LINE
  8
0
 10
1156.08
 11
1156.08
 20
0
 21
-2.8
  0
LINE
  8
0
 10
1156.08
 11
1140.92
 20
-2.8
 21
-2.8
  0
LINE
  8
0
 10
1140.92
 11
1140.92
 20
-2.8
 21
0
  0
LINE
  8
0
 10
1140.92
 11
1096.08
 20
0
 21
0
  0
LINE
  8
0
 10
1096.08
 11
1096.08
 20
0
 21
-2.8
  0
LINE
  8
0
 10
1096.08
 11
1080.92
 20
-2.8
 21
-2.8
  0
LINE
  8
0
 10
1080.92
 11
1080.92
 20
-2.8
 21
0
  0
LINE
  8
0
 10
1080.92
 11
1036.08
 20
0
 21
0
  0
LINE
  8
0
 10
1036.08
 11
1036.08
 20
0
 21
-2.8
  0
LINE
  8
0
 10
1036.08
 11
1020.93
 20
-2.8
 21
-2.8
  0
LINE
  8
0
 10
1020.93
 11
1020.93
 20
-2.8
 21
0
  0
LINE
  8
0
 10
1020.93
 11
976.075
 20
0
 21
0
  0
LINE
  8
0
 10
976.075
 11
976.075
 20
0
 21
-2.8
  0
LINE
  8
0
 10
976.075
 11
960.925
 20
-2.8
 21
-2.8
  0
LINE
  8
0
 10
960.925
 11
960.925
 20
-2.8
 21
0
  0
LINE
  8
0
 10
960.925
 11
916.075
 20
0
 21
0
  0
LINE
  8
0
 10
916.075
 11
916.075
 20
0
 21
-2.8
  0
LINE
  8
0
 10
916.075
 11
900.925
 20
-2.8
 21
-2.8
  0
LINE
  8
0
 10
900.925
 11
900.925
 20
-2.8
 21
0
  0
LINE
  8
0
 10
900.925
 11
853.5
 20
0
 21
0
  0
LINE
  8
0
 10
853.5
 11
853.5
 20
0
 21
7.425
  0
LINE
  8
0
 10
853.5
 11
850.7
 20
7.425
 21
7.425
  0
LINE
  8
0
 10
850.7
 11
850.7
 20
228.925
 21
244.075
  0
LINE
  8
0
 10
850.7
 11
853.5
 20
244.075
 21
244.075
  0
LINE
  8
0
 10
853.5
 11
853.5
 20
244.075
 21
291.5
  0
LINE
  8
0
 10
853.5
 11
880.925
 20
291.5
 21
291.5
  0
LINE
  8
0
 10
880.925
 11
880.925
 20
291.5
 21
294.3
  0
LINE
  8
0
 10
880.925
 11
896.075
 20
294.3
 21
294.3
  0
LINE
  8
0
 10
896.075
 11
896.075
 20
294.3
 21
291.5
  0
LINE
  8
0
 10
896.075
 11
940.925
 20
291.5
 21
291.5
  0
LINE
  8
0
 10
940.925
 11
940.925
 20
291.5
 21
294.3
  0
LINE
  8
0
 10
940.925
 11
956.075
 20
294.3
 21
294.3
  0
LINE
  8
0
 10
956.075
 11
956.075
 20
294.3
 21
291.5
  0
LINE
  8
0
 10
956.075
 11
1000.93
 20
291.5
 21
291.5
  0
LINE
  8
0
 10
1000.93
 11
1000.93
 20
291.5
 21
294.3
  0
LINE
  8
0
 10
1000.93
 11
1016.08
 20
294.3
 21
294.3
  0
LINE
  8
0
 10
1016.08
 11
1016.08
 20
294.3
 21
291.5
  0
LINE
  8
0
 10
1016.08
 11
1060.92
 20
291.5
 21
291.5
  0
LINE
  8
0
 10
1060.92
 11
1060.92
 20
291.5
 21
294.3
  0
LINE
  8
0
 10
1060.92
 11
1076.08
 20
294.3
 21
294.3
  0
LINE
  8
0
 10
1076.08
 11
1076.08
 20
294.3
 21
291.5
  0
LINE
  8
0
 10
1076.08
 11
1120.92
 20
291.5
 21
291.5
  0
LINE
  8
0
 10
1120.92
 11
1120.92
 20
291.5
 21
294.3
  0
LINE
  8
0
 10
1120.92
 11
1136.08
 20
294.3
 21
294.3
  0
LINE
  8
0
 10
1136.08
 11
1136.08
 20
294.3
 21
291.5
  0
LINE
  8
0
 10
1136.08
 11
1180.92
 20
291.5
 21
291.5
  0
LINE
  8
0
 10
1180.92
 11
1180.92
 20
291.5
 21
294.3
  0
LINE
  8
0
 10
1180.92
 11
1196.08
 20
294.3
 21
294.3
  0
LINE
  8
0
 10
1196.08
 11
1196.08
 20
294.3
 21
291.5
  0
LINE
  8
0
 10
1196.08
 11
1240.92
 20
291.5
 21
291.5
  0
LINE
  8
0
 10
1240.92
 11
1240.92
 20
291.5
 21
294.3
  0
LINE
  8
0
 10
1240.92
 11
1256.08
 20
294.3
 21
294.3
  0
LINE
  8
0
 10
1256.08
 11
1256.08
 20
294.3
 21
291.5
  0
LINE
  8
0
 10
1256.08
 11
1283.5
 20
291.5
 21
291.5
  0
LINE
  8
0
 10
1283.5
 11
1283.5
 20
291.5
 21
244.075
  0
LINE
  8
0
 10
1283.5
 11
1286.3
 20
244.075
 21
244.075
  0
LINE
  8
0
 10
1286.3
 11
1286.3
 20
244.075
 21
228.925
  0
LINE
  8
0
 10
1286.3
 11
1283.5
 20
228.925
 21
228.925
  0
LINE
  8
0
 10
1283.5
 11
1283.5
 20
228.925
 21
181.5
  0
LINE
  8
0
 10
1283.5
 11
1256.08
 20
181.5
 21
181.5
  0
LINE
  8
0
 10
1256.08
 11
1256.08
 20
181.5
 21
178.7
  0
LINE
  8
0
 10
1256.08
 11
1240.92
 20
178.7
 21
178.7
  0
LINE
  8
0
 10
1240.92
 11
1240.92
 20
178.7
 21
181.5
  0
LINE
  8
0
 10
1240.92
 11
1196.08
 20
181.5
 21
181.5
  0
LINE
  8
0
 10
1196.08
 11
1196.08
 20
181.5
 21
178.7
  0
LINE
  8
0
 10
1196.08
 11
1180.92
 20
178.7
 21
178.7
  0
LINE
  8
0
 10
1180.92
 11
1180.92
 20
178.7
 21
181.5
  0
LINE
  8
0
 10
1180.92
 11
1136.08
 20
181.5
 21
181.5
  0
LINE
  8
0
 10
1136.08
 11
1136.08
 20
181.5
 21
178.7
  0
LINE
  8
0
 10
1136.08
 11
1120.92
 20
178.7
 21
178.7
  0
LINE
  8
0
 10
1120.92
 11
1120.92
 20
178.7
 21
181.5
  0
LINE
  8
0
 10
1120.92
 11
1076.08
 20
181.5
 21
181.5
  0
LINE
  8
0
 10
1076.08
 11
1076.08
 20
181.5
 21
178.7
  0
LINE
  8
0
 10
1076.08
 11
1060.92
 20
178.7
 21
178.7
  0
LINE
  8
0
 10
1060.92
 11
1060.92
 20
178.7
 21
181.5
  0
LINE
  8
0
 10
1060.92
 11
1016.08
 20
181.5
 21
181.5
  0
LINE
  8
0
 10
1016.08
 11
1016.08
 20
181.5
 21
178.7
  0
LINE
  8
0
 10
1016.08
 11
1000.93
 20
178.7
 21
178.7
  0
LINE
  8
0
 10
1000.93
 11
1000.93
 20
178.7
 21
181.5
  0
LINE
  8
0
 10
1000.93
 11
956.075
 20
181.5
 21
181.5
  0
LINE
  8
0
 10
956.075
 11
956.075
 20
181.5
 21
178.7
  0
LINE
  8
0
 10
956.075
 11
940.925
 20
178.7
 21
178.7
  0
LINE
  8
0
 10
940.925
 11
940.925
 20
178.7
 21
181.5
  0
LINE
  8
0
 10
940.925
 11
896.075
 20
181.5
 21
181.5
  0
LINE
  8
0
 10
896.075
 11
896.075
 20
181.5
 21
178.7
  0
LINE
  8
0
 10
896.075
 11
880.925
 20
178.7
 21
178.7
  0
LINE
  8
0
 10
880.925
 11
880.925
 20
178.7
 21
181.5
  0
LINE
  8
0
 10
880.925
 11
853.5
 20
181.5
 21
181.5
  0
LINE
  8
0
 10
853.5
 11
853.5
 20
181.5
 21
228.925
  0
LINE
  8
0
 10
853.5
 11
850.7
 20
228.925
 21
228.925
  0
LINE
  8
0
 10
850.7
 11
850.7
 20
367.825
 21
382.975
  0
LINE
  8
0
 10
850.7
 11
853.5
 20
382.975
 21
382.975
  0
LINE
  8
0
 10
853.5
 11
853.5
 20
382.975
 21
399.3
  0
LINE
  8
0
 10
853.5
 11
963.5
 20
399.3
 21
399.3
  0
LINE
  8
0
 10
963.5
 11
963.5
 20
399.3
 21
382.975
  0
LINE
  8
0
 10
963.5
 11
966.3
 20
382.975
 21
382.975
  0
LINE
  8
0
 10
966.3
 11
966.3
 20
382.975
 21
367.825
  0
LINE
  8
0
 10
966.3
 11
963.5
 20
367.825
 21
367.825
  0
LINE
  8
0
 10
963.5
 11
963.5
 20
367.825
 21
351.5
  0
LINE
  8
0
 10
963.5
 11
853.5
 20
351.5
 21
351.5
  0
LINE
  8
0
 10
853.5
 11
853.5
 20
351.5
 21
367.825
  0
LINE
  8
0
 10
853.5
 11
850.7
 20
367.825
 21
367.825
  0
LINE
  8
0
 10
850.775
 11
850.775
 20
317.975
 21
332.825
  0
LINE
  8
0
 10
850.775
 11
853.425
 20
332.825
 21
332.825
  0
LINE
  8
0
 10
853.425
 11
853.425
 20
332.825
 21
317.975
  0
LINE
  8
0
 10
853.425
 11
850.775
 20
317.975
 21
317.975
  0
LINE
  8
0
 10
865.3
 11
865.361
 20
196.5
 21
197.124
  0
LINE
  8
0
 10
865.361
 11
865.544
 20
197.124
 21
197.725
  0
LINE
  8
0
 10
865.544
 11
865.839
 20
197.725
 21
198.278
  0
LINE
  8
0
 10
865.839
 11
866.237
 20
198.278
 21
198.763
  0
LINE
  8
0
 10
866.237
 11
866.722
 20
198.763
 21
199.161
  0
LINE
  8
0
 10
866.722
 11
867.275
 20
199.161
 21
199.456
  0
LINE
  8
0
 10
867.275
 11
867.876
 20
199.456
 21
199.639
  0
LINE
  8
0
 10
867.876
 11
868.5
 20
199.639
 21
199.7
  0
LINE
  8
0
 10
868.5
 11
869.124
 20
199.7
 21
199.639
  0
LINE
  8
0
 10
869.124
 11
869.725
 20
199.639
 21
199.456
  0
LINE
  8
0
 10
869.725
 11
870.278
 20
199.456
 21
199.161
  0
LINE
  8
0
 10
870.278
 11
870.763
 20
199.161
 21
198.763
  0
LINE
  8
0
 10
870.763
 11
871.161
 20
198.763
 21
198.278
  0
LINE
  8
0
 10
871.161
 11
871.456
 20
198.278
 21
197.725
  0
LINE
  8
0
 10
871.456
 11
871.639
 20
197.725
 21
197.124
  0
LINE
  8
0
 10
871.639
 11
871.7
 20
197.124
 21
196.5
  0
LINE
  8
0
 10
871.7
 11
871.639
 20
196.5
 21
195.876
  0
LINE
  8
0
 10
871.639
 11
871.456
 20
195.876
 21
195.275
  0
LINE
  8
0
 10
871.456
 11
871.161
 20
195.275
 21
194.722
  0
LINE
  8
0
 10
871.161
 11
870.763
 20
194.722
 21
194.237
  0
LINE
  8
0
 10
870.763
 11
870.278
 20
194.237
 21
193.839
  0
LINE
  8
0
 10
870.278
 11
869.725
 20
193.839
 21
193.544
  0
LINE
  8
0
 10
869.725
 11
869.124
 20
193.544
 21
193.361
  0
LINE
  8
0
 10
869.124
 11
868.5
 20
193.361
 21
193.3
  0
LINE
  8
0
 10
868.5
 11
867.876
 20
193.3
 21
193.361
  0
LINE
  8
0
 10
867.876
 11
867.275
 20
193.361
 21
193.544
  0
LINE
  8
0
 10
867.275
 11
866.722
 20
193.544
 21
193.839
  0
LINE
  8
0
 10
866.722
 11
866.237
 20
193.839
 21
194.237
  0
LINE
  8
0
 10
866.237
 11
865.839
 20
194.237
 21
194.722
  0
LINE
  8
0
 10
865.839
 11
865.544
 20
194.722
 21
195.275
  0
LINE
  8
0
 10
865.544
 11
865.361
 20
195.275
 21
195.876
  0
LINE
  8
0
 10
865.361
 11
865.3
 20
195.876
 21
196.5
  0
LINE
  8
0
 10
866.7
 11
866.809
 20
276.5
 21
277.116
  0
LINE
  8
0
 10
866.809
 11
867.121
 20
277.116
 21
277.657
  0
LINE
  8
0
 10
867.121
 11
867.6
 20
277.657
 21
278.059
  0
LINE
  8
0
 10
867.6
 11
868.187
 20
278.059
 21
278.273
  0
LINE
  8
0
 10
868.187
 11
868.813
 20
278.273
 21
278.273
  0
LINE
  8
0
 10
868.813
 11
869.4
 20
278.273
 21
278.059
  0
LINE
  8
0
 10
869.4
 11
869.879
 20
278.059
 21
277.657
  0
LINE
  8
0
 10
869.879
 11
870.191
 20
277.657
 21
277.116
  0
LINE
  8
0
 10
870.191
 11
870.3
 20
277.116
 21
276.5
  0
LINE
  8
0
 10
870.3
 11
870.191
 20
276.5
 21
275.884
  0
LINE
  8
0
 10
870.191
 11
869.879
 20
275.884
 21
275.343
  0
LINE
  8
0
 10
869.879
 11
869.4
 20
275.343
 21
274.941
  0
LINE
  8
0
 10
869.4
 11
868.813
 20
274.941
 21
274.727
  0
LINE
  8
0
 10
868.813
 11
868.187
 20
274.727
 21
274.727
  0
LINE
  8
0
 10
868.187
 11
867.6
 20
274.727
 21
274.941
  0
LINE
  8
0
 10
867.6
 11
867.121
 20
274.941
 21
275.343
  0
LINE
  8
0
 10
867.121
 11
866.809
 20
275.343
 21
275.884
  0
LINE
  8
0
 10
866.809
 11
866.7
 20
275.884
 21
276.5
  0
LINE
  8
0
 10
881.075
 11
881.075
 20
306.575
 21
309.225
  0
LINE
  8
0
 10
881.075
 11
895.925
 20
309.225
 21
309.225
  0
LINE
  8
0
 10
895.925
 11
895.925
 20
309.225
 21
306.575
  0
LINE
  8
0
 10
895.925
 11
881.075
 20
306.575
 21
306.575
  0
LINE
  8
0
 10
901.075
 11
901.075
 20
356.575
 21
359.225
  0
LINE
  8
0
 10
901.075
 11
915.925
 20
359.225
 21
359.225
  0
LINE
  8
0
 10
915.925
 11
915.925
 20
359.225
 21
356.575
  0
LINE
  8
0
 10
915.925
 11
901.075
 20
356.575
 21
356.575
  0
LINE
  8
0
 10
941.075
 11
941.075
 20
306.575
 21
309.225
  0
LINE
  8
0
 10
941.075
 11
955.925
 20
309.225
 21
309.225
  0
LINE
  8
0
 10
955.925
 11
955.925
 20
309.225
 21
306.575
  0
LINE
  8
0
 10
955.925
 11
941.075
 20
306.575
 21
306.575
  0
LINE
  8
0
 10
1001.08
 11
1001.08
 20
306.575
 21
309.225
  0
LINE
  8
0
 10
1001.08
 11
1015.93
 20
309.225
 21
309.225
  0
LINE
  8
0
 10
1015.93
 11
1015.93
 20
309.225
 21
306.575
  0
LINE
  8
0
 10
1015.93
 11
1001.08
 20
306.575
 21
306.575
  0
LINE
  8
0
 10
1061.08
 11
1061.08
 20
306.575
 21
309.225
  0
LINE
  8
0
 10
1061.08
 11
1075.92
 20
309.225
 21
309.225
  0
LINE
  8
0
 10
1075.92
 11
1075.92
 20
309.225
 21
306.575
  0
LINE
  8
0
 10
1075.92
 11
1061.08
 20
306.575
 21
306.575
  0
LINE
  8
0
 10
1121.08
 11
1121.08
 20
306.575
 21
309.225
  0
LINE
  8
0
 10
1121.08
 11
1135.92
 20
309.225
 21
309.225
  0
LINE
  8
0
 10
1135.92
 11
1135.92
 20
309.225
 21
306.575
  0
LINE
  8
0
 10
1135.92
 11
1121.08
 20
306.575
 21
306.575
  0
LINE
  8
0
 10
1181.08
 11
1181.08
 20
306.575
 21
309.225
  0
LINE
  8
0
 10
1181.08
 11
1195.92
 20
309.225
 21
309.225
  0
LINE
  8
0
 10
1195.92
 11
1195.92
 20
309.225
 21
306.575
  0
LINE
  8
0
 10
1195.92
 11
1181.08
 20
306.575
 21
306.575
  0
LINE
  8
0
 10
1241.08
 11
1241.08
 20
306.575
 21
309.225
  0
LINE
  8
0
 10
1241.08
 11
1255.92
 20
309.225
 21
309.225
  0
LINE
  8
0
 10
1255.92
 11
1255.92
 20
309.225
 21
306.575
  0
LINE
  8
0
 10
1255.92
 11
1241.08
 20
306.575
 21
306.575
  0
LINE
  8
0
 10
1283.58
 11
1283.58
 20
314.075
 21
328.925
  0
LINE
  8
0
 10
1283.58
 11
1286.23
 20
328.925
 21
328.925
  0
LINE
  8
0
 10
1286.23
 11
1286.23
 20
328.925
 21
314.075
  0
LINE
  8
0
 10
1286.23
 11
1283.58
 20
314.075
 21
314.075
  0
ENDSEC
  0
SECTION
  2
OBJECTS
  0
DICTIONARY
  0
ENDSEC
  0
EOF
