  0
SECTION
  2
BLOCKS
  0
ENDSEC
  0
SECTION
  2
ENTITIES
  0
LINE
  8
0
 10
-14.4
 11
-14.4
 20
-6.85
 21
6.85
  0
LINE
  8
0
 10
-14.4
 11
14.4
 20
6.85
 21
6.85
  0
LINE
  8
0
 10
14.4
 11
14.4
 20
6.85
 21
-6.85
  0
LINE
  8
0
 10
14.4
 11
-14.4
 20
-6.85
 21
-6.85
  0
LINE
  8
0
 10
-7.2
 11
7.2
 20
3.425
 21
3.425
  0
LINE
  8
0
 10
7.2
 11
6.6
 20
3.425
 21
-3.425
  0
LINE
  8
0
 10
6.6
 11
-6.6
 20
-3.425
 21
-3.425
  0
LINE
  8
0
 10
-6.6
 11
-7.2
 20
-3.425
 21
3.425
  0
LINE
  8
0
 10
0
 11
0
 20
-21.515
 21
-10
  0
LINE
  8
0
 10
0
 11
20
 20
-10
 21
-10
  0
LINE
  8
0
 10
20
 11
20
 20
-10
 21
-30
  0
LINE
  8
0
 10
20
 11
8.485
 20
-30
 21
-30
  0
LINE
  8
0
 10
8.485
 11
0
 20
-30
 21
-21.515
  0
LINE
  8
0
 10
28.8
 11
28.8
 20
0
 21
5
  0
LINE
  8
0
 10
28.8
 11
41.225
 20
5
 21
5
  0
LINE
  8
0
 10
41.225
 11
41.225
 20
5
 21
7.8
  0
LINE
  8
0
 10
41.225
 11
56.375
 20
7.8
 21
7.8
  0
LINE
  8
0
 10
56.375
 11
56.375
 20
7.8
 21
5
  0
LINE
  8
0
 10
56.375
 11
68.8
 20
5
 21
5
  0
LINE
  8
0
 10
68.8
 11
68.8
 20
5
 21
0
  0
LINE
  8
0
 10
68.8
 11
28.8
 20
0
 21
0
  0
LINE
  8
0
 10
72.8
 11
72.8
 20
0
 21
10.8
  0
LINE
  8
0
 10
72.8
 11
127.8
 20
10.8
 21
10.8
  0
LINE
  8
0
 10
127.8
 11
127.8
 20
10.8
 21
0
  0
LINE
  8
0
 10
127.8
 11
72.8
 20
0
 21
0
  0
LINE
  8
0
 10
85.375
 11
85.375
 20
4.075
 21
6.725
  0
LINE
  8
0
 10
85.375
 11
100.225
 20
6.725
 21
6.725
  0
LINE
  8
0
 10
100.225
 11
100.225
 20
6.725
 21
4.075
  0
LINE
  8
0
 10
100.225
 11
85.375
 20
4.075
 21
4.075
  0
LINE
  8
0
 10
109.6
 11
109.661
 20
5.4
 21
6.024
  0
LINE
  8
0
 10
109.661
 11
109.844
 20
6.024
 21
6.625
  0
LINE
  8
0
 10
109.844
 11
110.139
 20
6.625
 21
7.178
  0
LINE
  8
0
 10
110.139
 11
110.537
 20
7.178
 21
7.663
  0
LINE
  8
0
 10
110.537
 11
111.022
 20
7.663
 21
8.061
  0
LINE
  8
0
 10
111.022
 11
111.575
 20
8.061
 21
8.356
  0
LINE
  8
0
 10
111.575
 11
112.176
 20
8.356
 21
8.539
  0
LINE
  8
0
 10
112.176
 11
112.8
 20
8.539
 21
8.6
  0
LINE
  8
0
 10
112.8
 11
113.424
 20
8.6
 21
8.539
  0
LINE
  8
0
 10
113.424
 11
114.025
 20
8.539
 21
8.356
  0
LINE
  8
0
 10
114.025
 11
114.578
 20
8.356
 21
8.061
  0
LINE
  8
0
 10
114.578
 11
115.063
 20
8.061
 21
7.663
  0
LINE
  8
0
 10
115.063
 11
115.461
 20
7.663
 21
7.178
  0
LINE
  8
0
 10
115.461
 11
115.756
 20
7.178
 21
6.625
  0
LINE
  8
0
 10
115.756
 11
115.939
 20
6.625
 21
6.024
  0
LINE
  8
0
 10
115.939
 11
116
 20
6.024
 21
5.4
  0
LINE
  8
0
 10
116
 11
115.939
 20
5.4
 21
4.776
  0
LINE
  8
0
 10
115.939
 11
115.756
 20
4.776
 21
4.175
  0
LINE
  8
0
 10
115.756
 11
115.461
 20
4.175
 21
3.622
  0
LINE
  8
0
 10
115.461
 11
115.063
 20
3.622
 21
3.137
  0
LINE
  8
0
 10
115.063
 11
114.578
 20
3.137
 21
2.739
  0
LINE
  8
0
 10
114.578
 11
114.025
 20
2.739
 21
2.444
  0
LINE
  8
0
 10
114.025
 11
113.424
 20
2.444
 21
2.261
  0
LINE
  8
0
 10
113.424
 11
112.8
 20
2.261
 21
2.2
  0
LINE
  8
0
 10
112.8
 11
112.176
 20
2.2
 21
2.261
  0
LINE
  8
0
 10
112.176
 11
111.575
 20
2.261
 21
2.444
  0
LINE
  8
0
 10
111.575
 11
111.022
 20
2.444
 21
2.739
  0
LINE
  8
0
 10
111.022
 11
110.537
 20
2.739
 21
3.137
  0
LINE
  8
0
 10
110.537
 11
110.139
 20
3.137
 21
3.622
  0
LINE
  8
0
 10
110.139
 11
109.844
 20
3.622
 21
4.175
  0
LINE
  8
0
 10
109.844
 11
109.661
 20
4.175
 21
4.776
  0
LINE
  8
0
 10
109.661
 11
109.6
 20
4.776
 21
5.4
  0
LINE
  8
0
 10
120.6
 11
120.709
 20
5.4
 21
6.016
  0
LINE
  8
0
 10
120.709
 11
121.021
 20
6.016
 21
6.557
  0
LINE
  8
0
 10
121.021
 11
121.5
 20
6.557
 21
6.959
  0
LINE
  8
0
 10
121.5
 11
122.087
 20
6.959
 21
7.173
  0
LINE
  8
0
 10
122.087
 11
122.713
 20
7.173
 21
7.173
  0
LINE
  8
0
 10
122.713
 11
123.3
 20
7.173
 21
6.959
  0
LINE
  8
0
 10
123.3
 11
123.779
 20
6.959
 21
6.557
  0
LINE
  8
0
 10
123.779
 11
124.091
 20
6.557
 21
6.016
  0
LINE
  8
0
 10
124.091
 11
124.2
 20
6.016
 21
5.4
  0
LINE
  8
0
 10
124.2
 11
124.091
 20
5.4
 21
4.784
  0
LINE
  8
0
 10
124.091
 11
123.779
 20
4.784
 21
4.243
  0
LINE
  8
0
 10
123.779
 11
123.3
 20
4.243
 21
3.841
  0
LINE
  8
0
 10
123.3
 11
122.713
 20
3.841
 21
3.627
  0
LINE
  8
0
 10
122.713
 11
122.087
 20
3.627
 21
3.627
  0
LINE
  8
0
 10
122.087
 11
121.5
 20
3.627
 21
3.841
  0
LINE
  8
0
 10
121.5
 11
121.021
 20
3.841
 21
4.243
  0
LINE
  8
0
 10
121.021
 11
120.709
 20
4.243
 21
4.784
  0
LINE
  8
0
 10
120.709
 11
120.6
 20
4.784
 21
5.4
  0
ENDSEC
  0
SECTION
  2
OBJECTS
  0
DICTIONARY
  0
ENDSEC
  0
EOF
