  0
SECTION
  2
BLOCKS
  0
ENDSEC
  0
SECTION
  2
ENTITIES
  0
LINE
  8
0
 10
-60
 20
17
 11
-60
 21
0
  0
LINE
  8
0
 10
-60
 20
0
 11
6.5
 21
0
  0
LINE
  8
0
 10
6.5
 20
0
 11
6.5
 21
10
  0
LINE
  8
0
 10
6.5
 20
10
 11
9.5
 21
10
  0
LINE
  8
0
 10
9.5
 20
10
 11
9.5
 21
0
  0
LINE
  8
0
 10
9.5
 20
0
 11
15
 21
0
  0
LINE
  8
0
 10
15
 20
0
 11
15
 21
336.5
  0
LINE
  8
0
 10
15
 20
336.5
 11
9.5
 21
336.5
  0
LINE
  8
0
 10
9.5
 20
336.5
 11
9.5
 21
326.5
  0
LINE
  8
0
 10
9.5
 20
326.5
 11
6.5
 21
326.5
  0
LINE
  8
0
 10
6.5
 20
326.5
 11
6.5
 21
336.5
  0
LINE
  8
0
 10
6.5
 20
336.5
 11
0
 21
336.5
  0
LINE
  8
0
 10
0
 20
336.5
 11
0
 21
271.5
  0
LINE
  8
0
 10
0
 20
271.5
 11
-1.2
 21
273.8
  0
LINE
  8
0
 10
-1.2
 20
273.8
 11
-2
 21
273.5
  0
LINE
  8
0
 10
-2
 20
273.5
 11
0
 21
267
  0
LINE
  8
0
 10
0
 20
267
 11
0
 21
257
  0
LINE
  8
0
 10
0
 20
257
 11
-60
 21
257
  0
LINE
  8
0
 10
-60
 20
257
 11
-60
 21
237
  0
LINE
  8
0
 10
-60
 20
237
 11
0
 21
237
  0
LINE
  8
0
 10
0
 20
237
 11
0
 21
191.5
  0
LINE
  8
0
 10
0
 20
191.5
 11
-1.2
 21
193.8
  0
LINE
  8
0
 10
-1.2
 20
193.8
 11
-2
 21
193.5
  0
LINE
  8
0
 10
-2
 20
193.5
 11
0
 21
187
  0
LINE
  8
0
 10
0
 20
187
 11
0
 21
177
  0
LINE
  8
0
 10
0
 20
177
 11
-60
 21
177
  0
LINE
  8
0
 10
-60
 20
177
 11
-60
 21
157
  0
LINE
  8
0
 10
-60
 20
157
 11
0
 21
157
  0
LINE
  8
0
 10
0
 20
157
 11
0
 21
111.5
  0
LINE
  8
0
 10
0
 20
111.5
 11
-1.2
 21
113.8
  0
LINE
  8
0
 10
-1.2
 20
113.8
 11
-2
 21
113.5
  0
LINE
  8
0
 10
-2
 20
113.5
 11
0
 21
107
  0
LINE
  8
0
 10
0
 20
107
 11
0
 21
97
  0
LINE
  8
0
 10
0
 20
97
 11
-60
 21
97
  0
LINE
  8
0
 10
-60
 20
97
 11
-60
 21
77
  0
LINE
  8
0
 10
-60
 20
77
 11
0
 21
77
  0
LINE
  8
0
 10
0
 20
77
 11
0
 21
31.5
  0
LINE
  8
0
 10
0
 20
31.5
 11
-1.2
 21
33.8
  0
LINE
  8
0
 10
-1.2
 20
33.8
 11
-2
 21
33.5
  0
LINE
  8
0
 10
-2
 20
33.5
 11
0
 21
27
  0
LINE
  8
0
 10
0
 20
27
 11
0
 21
17
  0
LINE
  8
0
 10
0
 20
17
 11
-60
 21
17
  0
ENDSEC
  0
SECTION
  2
OBJECTS
  0
DICTIONARY
  0
ENDSEC
  0
EOF
