  0
SECTION
  2
BLOCKS
  0
ENDSEC
  0
SECTION
  2
ENTITIES
  0
LINE
  8
0
 10
6.5
 20
10
 11
9.25
 21
10
  0
LINE
  8
0
 10
9.25
 20
10
 11
9.25
 21
0
  0
LINE
  8
0
 10
9.25
 20
0
 11
15
 21
0
  0
LINE
  8
0
 10
15
 20
0
 11
15
 21
204
  0
LINE
  8
0
 10
15
 20
204
 11
9.25
 21
204
  0
LINE
  8
0
 10
9.25
 20
204
 11
9.25
 21
194
  0
LINE
  8
0
 10
9.25
 20
194
 11
6.5
 21
194
  0
LINE
  8
0
 10
6.5
 20
194
 11
6.5
 21
204
  0
LINE
  8
0
 10
6.5
 20
204
 11
0
 21
204
  0
LINE
  8
0
 10
0
 20
204
 11
0
 21
198
  0
LINE
  8
0
 10
0
 20
198
 11
-0.0999908
 21
198
  0
LINE
  8
0
 10
-0.0999908
 20
198
 11
-2.2
 21
204
  0
LINE
  8
0
 10
-2.2
 20
204
 11
-3.29999
 21
204
  0
LINE
  8
0
 10
-3.29999
 20
204
 11
0
 21
192
  0
LINE
  8
0
 10
0
 20
192
 11
0
 21
182
  0
LINE
  8
0
 10
0
 20
182
 11
-60
 21
182
  0
LINE
  8
0
 10
-60
 20
182
 11
-60
 21
142
  0
LINE
  8
0
 10
-60
 20
142
 11
0
 21
142
  0
LINE
  8
0
 10
0
 20
142
 11
0
 21
118
  0
LINE
  8
0
 10
0
 20
118
 11
-0.0999908
 21
118
  0
LINE
  8
0
 10
-0.0999908
 20
118
 11
-2.2
 21
124
  0
LINE
  8
0
 10
-2.2
 20
124
 11
-3.29999
 21
124
  0
LINE
  8
0
 10
-3.29999
 20
124
 11
0
 21
112
  0
LINE
  8
0
 10
0
 20
112
 11
0
 21
102
  0
LINE
  8
0
 10
0
 20
102
 11
-60
 21
102
  0
LINE
  8
0
 10
-60
 20
102
 11
-60
 21
62
  0
LINE
  8
0
 10
-60
 20
62
 11
0
 21
62
  0
LINE
  8
0
 10
0
 20
62
 11
0
 21
38
  0
LINE
  8
0
 10
0
 20
38
 11
-0.0999908
 21
38
  0
LINE
  8
0
 10
-0.0999908
 20
38
 11
-2.2
 21
44
  0
LINE
  8
0
 10
-2.2
 20
44
 11
-3.29999
 21
44
  0
LINE
  8
0
 10
-3.29999
 20
44
 11
0
 21
32
  0
LINE
  8
0
 10
0
 20
32
 11
0
 21
22
  0
LINE
  8
0
 10
0
 20
22
 11
-60
 21
22
  0
LINE
  8
0
 10
-60
 20
22
 11
-60
 21
0
  0
LINE
  8
0
 10
-60
 20
0
 11
6.5
 21
0
  0
LINE
  8
0
 10
6.5
 20
0
 11
6.5
 21
10
  0
LINE
  8
0
 10
160
 20
185.875
 11
170
 21
185.875
  0
LINE
  8
0
 10
170
 20
185.875
 11
170
 21
183.125
  0
LINE
  8
0
 10
170
 20
183.125
 11
160
 21
183.125
  0
LINE
  8
0
 10
160
 20
183.125
 11
160
 21
20.875
  0
LINE
  8
0
 10
160
 20
20.875
 11
170
 21
20.875
  0
LINE
  8
0
 10
170
 20
20.875
 11
170
 21
18.125
  0
LINE
  8
0
 10
170
 20
18.125
 11
160
 21
18.125
  0
LINE
  8
0
 10
160
 20
18.125
 11
160
 21
0
  0
LINE
  8
0
 10
160
 20
0
 11
200
 21
0
  0
LINE
  8
0
 10
200
 20
0
 11
200
 21
18.125
  0
LINE
  8
0
 10
200
 20
18.125
 11
190
 21
18.125
  0
LINE
  8
0
 10
190
 20
18.125
 11
190
 21
20.875
  0
LINE
  8
0
 10
190
 20
20.875
 11
200
 21
20.875
  0
LINE
  8
0
 10
200
 20
20.875
 11
200
 21
183.125
  0
LINE
  8
0
 10
200
 20
183.125
 11
190
 21
183.125
  0
LINE
  8
0
 10
190
 20
183.125
 11
190
 21
185.875
  0
LINE
  8
0
 10
190
 20
185.875
 11
200
 21
185.875
  0
LINE
  8
0
 10
200
 20
185.875
 11
200
 21
204
  0
LINE
  8
0
 10
200
 20
204
 11
160
 21
204
  0
LINE
  8
0
 10
160
 20
204
 11
160
 21
185.875
  0
LINE
  8
0
 10
150.006
 20
204
 11
140.006
 21
204
  0
LINE
  8
0
 10
140.006
 20
204
 11
140.006
 21
0
  0
LINE
  8
0
 10
140.006
 20
0
 11
150.006
 21
0
  0
LINE
  8
0
 10
150.006
 20
0
 11
150.006
 21
204
  0
LINE
  8
0
 10
140
 20
204
 11
86
 21
204
  0
LINE
  8
0
 10
86
 20
204
 11
86
 21
0
  0
LINE
  8
0
 10
86
 20
0
 11
140
 21
0
  0
LINE
  8
0
 10
140
 20
0
 11
140
 21
204
  0
LINE
  8
0
 10
85.994
 20
204
 11
67.494
 21
204
  0
LINE
  8
0
 10
67.494
 20
204
 11
67.494
 21
153
  0
LINE
  8
0
 10
67.494
 20
153
 11
75.994
 21
153
  0
LINE
  8
0
 10
75.994
 20
153
 11
75.994
 21
51
  0
LINE
  8
0
 10
75.994
 20
51
 11
67.494
 21
51
  0
LINE
  8
0
 10
67.494
 20
51
 11
67.494
 21
0
  0
LINE
  8
0
 10
67.494
 20
0
 11
85.994
 21
0
  0
LINE
  8
0
 10
85.994
 20
0
 11
85.994
 21
204
  0
LINE
  8
0
 10
70.494
 20
182.95
 11
70.494
 21
186.05
  0
LINE
  8
0
 10
70.494
 20
186.05
 11
75.994
 21
186.05
  0
LINE
  8
0
 10
75.994
 20
186.05
 11
75.994
 21
182.95
  0
LINE
  8
0
 10
75.994
 20
182.95
 11
70.494
 21
182.95
  0
LINE
  8
0
 10
70.494
 20
17.95
 11
70.494
 21
21.05
  0
LINE
  8
0
 10
70.494
 20
21.05
 11
75.994
 21
21.05
  0
LINE
  8
0
 10
75.994
 20
21.05
 11
75.994
 21
17.95
  0
LINE
  8
0
 10
75.994
 20
17.95
 11
70.494
 21
17.95
  0
LINE
  8
0
 10
60
 20
204
 11
40
 21
204
  0
LINE
  8
0
 10
40
 20
204
 11
40
 21
185.875
  0
LINE
  8
0
 10
40
 20
185.875
 11
50
 21
185.875
  0
LINE
  8
0
 10
50
 20
185.875
 11
50
 21
183.125
  0
LINE
  8
0
 10
50
 20
183.125
 11
40
 21
183.125
  0
LINE
  8
0
 10
40
 20
183.125
 11
40
 21
20.875
  0
LINE
  8
0
 10
40
 20
20.875
 11
50
 21
20.875
  0
LINE
  8
0
 10
50
 20
20.875
 11
50
 21
18.125
  0
LINE
  8
0
 10
50
 20
18.125
 11
40
 21
18.125
  0
LINE
  8
0
 10
40
 20
18.125
 11
40
 21
0
  0
LINE
  8
0
 10
40
 20
0
 11
60
 21
0
  0
LINE
  8
0
 10
60
 20
0
 11
60
 21
204
  0
LINE
  8
0
 10
-111
 20
10
 11
-108.25
 21
10
  0
LINE
  8
0
 10
-108.25
 20
10
 11
-108.25
 21
0
  0
LINE
  8
0
 10
-108.25
 20
0
 11
-100
 21
0
  0
LINE
  8
0
 10
-100
 20
0
 11
-100
 21
94
  0
LINE
  8
0
 10
-100
 20
94
 11
-108.25
 21
94
  0
LINE
  8
0
 10
-108.25
 20
94
 11
-108.25
 21
84
  0
LINE
  8
0
 10
-108.25
 20
84
 11
-111
 21
84
  0
LINE
  8
0
 10
-111
 20
84
 11
-111
 21
94
  0
LINE
  8
0
 10
-111
 20
94
 11
-120
 21
94
  0
LINE
  8
0
 10
-120
 20
94
 11
-120
 21
88
  0
LINE
  8
0
 10
-120
 20
88
 11
-120.1
 21
88
  0
LINE
  8
0
 10
-120.1
 20
88
 11
-122.2
 21
94
  0
LINE
  8
0
 10
-122.2
 20
94
 11
-123.3
 21
94
  0
LINE
  8
0
 10
-123.3
 20
94
 11
-120
 21
82
  0
LINE
  8
0
 10
-120
 20
82
 11
-120
 21
72
  0
LINE
  8
0
 10
-120
 20
72
 11
-120.1
 21
72
  0
LINE
  8
0
 10
-120.1
 20
72
 11
-122.2
 21
78
  0
LINE
  8
0
 10
-122.2
 20
78
 11
-123.3
 21
78
  0
LINE
  8
0
 10
-123.3
 20
78
 11
-121.65
 21
72
  0
LINE
  8
0
 10
-121.65
 20
72
 11
-180
 21
72
  0
LINE
  8
0
 10
-180
 20
72
 11
-180
 21
64
  0
LINE
  8
0
 10
-180
 20
64
 11
-120
 21
64
  0
LINE
  8
0
 10
-120
 20
64
 11
-120
 21
56
  0
LINE
  8
0
 10
-120
 20
56
 11
-120.1
 21
56
  0
LINE
  8
0
 10
-120.1
 20
56
 11
-122.2
 21
62
  0
LINE
  8
0
 10
-122.2
 20
62
 11
-123.3
 21
62
  0
LINE
  8
0
 10
-123.3
 20
62
 11
-121.65
 21
56
  0
LINE
  8
0
 10
-121.65
 20
56
 11
-180
 21
56
  0
LINE
  8
0
 10
-180
 20
56
 11
-180
 21
48
  0
LINE
  8
0
 10
-180
 20
48
 11
-120
 21
48
  0
LINE
  8
0
 10
-120
 20
48
 11
-120
 21
40
  0
LINE
  8
0
 10
-120
 20
40
 11
-180
 21
40
  0
LINE
  8
0
 10
-180
 20
40
 11
-180
 21
32
  0
LINE
  8
0
 10
-180
 20
32
 11
-120
 21
32
  0
LINE
  8
0
 10
-120
 20
32
 11
-120
 21
0
  0
LINE
  8
0
 10
-120
 20
0
 11
-111
 21
0
  0
LINE
  8
0
 10
-111
 20
0
 11
-111
 21
10
  0
ENDSEC
  0
SECTION
  2
OBJECTS
  0
DICTIONARY
  0
ENDSEC
  0
EOF
