  0
SECTION
  2
BLOCKS
  0
ENDSEC
  0
SECTION
  2
ENTITIES
  0
LINE
  8
0
 10
-180
 11
-180
 20
32
 21
40
  0
LINE
  8
0
 10
-180
 11
-120
 20
40
 21
40
  0
LINE
  8
0
 10
-120
 11
-120
 20
40
 21
48
  0
LINE
  8
0
 10
-120
 11
-180
 20
48
 21
48
  0
LINE
  8
0
 10
-180
 11
-180
 20
48
 21
56
  0
LINE
  8
0
 10
-180
 11
-121.65
 20
56
 21
56
  0
LINE
  8
0
 10
-121.65
 11
-123.3
 20
56
 21
62
  0
LINE
  8
0
 10
-123.3
 11
-122.2
 20
62
 21
62
  0
LINE
  8
0
 10
-122.2
 11
-120.1
 20
62
 21
56
  0
LINE
  8
0
 10
-120.1
 11
-120
 20
56
 21
56
  0
LINE
  8
0
 10
-120
 11
-120
 20
56
 21
64
  0
LINE
  8
0
 10
-120
 11
-180
 20
64
 21
64
  0
LINE
  8
0
 10
-180
 11
-180
 20
64
 21
72
  0
LINE
  8
0
 10
-180
 11
-121.65
 20
72
 21
72
  0
LINE
  8
0
 10
-121.65
 11
-123.3
 20
72
 21
78
  0
LINE
  8
0
 10
-123.3
 11
-122.2
 20
78
 21
78
  0
LINE
  8
0
 10
-122.2
 11
-120.1
 20
78
 21
72
  0
LINE
  8
0
 10
-120.1
 11
-120
 20
72
 21
72
  0
LINE
  8
0
 10
-120
 11
-120
 20
72
 21
82
  0
LINE
  8
0
 10
-120
 11
-123.3
 20
82
 21
94
  0
LINE
  8
0
 10
-123.3
 11
-122.2
 20
94
 21
94
  0
LINE
  8
0
 10
-122.2
 11
-120.1
 20
94
 21
88
  0
LINE
  8
0
 10
-120.1
 11
-120
 20
88
 21
88
  0
LINE
  8
0
 10
-120
 11
-120
 20
88
 21
94
  0
LINE
  8
0
 10
-120
 11
-111
 20
94
 21
94
  0
LINE
  8
0
 10
-111
 11
-111
 20
94
 21
84
  0
LINE
  8
0
 10
-111
 11
-108.25
 20
84
 21
84
  0
LINE
  8
0
 10
-108.25
 11
-108.25
 20
84
 21
94
  0
LINE
  8
0
 10
-108.25
 11
-100
 20
94
 21
94
  0
LINE
  8
0
 10
-100
 11
-100
 20
94
 21
0
  0
LINE
  8
0
 10
-100
 11
-108.25
 20
0
 21
0
  0
LINE
  8
0
 10
-108.25
 11
-108.25
 20
0
 21
10
  0
LINE
  8
0
 10
-108.25
 11
-111
 20
10
 21
10
  0
LINE
  8
0
 10
-111
 11
-111
 20
10
 21
0
  0
LINE
  8
0
 10
-111
 11
-120
 20
0
 21
0
  0
LINE
  8
0
 10
-120
 11
-120
 20
0
 21
32
  0
LINE
  8
0
 10
-120
 11
-180
 20
32
 21
32
  0
LINE
  8
0
 10
-60
 11
-60
 20
0
 21
22
  0
LINE
  8
0
 10
-60
 11
0
 20
22
 21
22
  0
LINE
  8
0
 10
0
 11
0
 20
22
 21
32
  0
LINE
  8
0
 10
0
 11
-3.3
 20
32
 21
44
  0
LINE
  8
0
 10
-3.3
 11
-2.2
 20
44
 21
44
  0
LINE
  8
0
 10
-2.2
 11
-0.1
 20
44
 21
38
  0
LINE
  8
0
 10
-0.1
 11
0
 20
38
 21
38
  0
LINE
  8
0
 10
0
 11
0
 20
38
 21
62
  0
LINE
  8
0
 10
0
 11
-60
 20
62
 21
62
  0
LINE
  8
0
 10
-60
 11
-60
 20
62
 21
102
  0
LINE
  8
0
 10
-60
 11
0
 20
102
 21
102
  0
LINE
  8
0
 10
0
 11
0
 20
102
 21
112
  0
LINE
  8
0
 10
0
 11
-3.3
 20
112
 21
124
  0
LINE
  8
0
 10
-3.3
 11
-2.2
 20
124
 21
124
  0
LINE
  8
0
 10
-2.2
 11
-0.1
 20
124
 21
118
  0
LINE
  8
0
 10
-0.1
 11
0
 20
118
 21
118
  0
LINE
  8
0
 10
0
 11
0
 20
118
 21
142
  0
LINE
  8
0
 10
0
 11
-60
 20
142
 21
142
  0
LINE
  8
0
 10
-60
 11
-60
 20
142
 21
182
  0
LINE
  8
0
 10
-60
 11
0
 20
182
 21
182
  0
LINE
  8
0
 10
0
 11
0
 20
182
 21
192
  0
LINE
  8
0
 10
0
 11
-3.3
 20
192
 21
204
  0
LINE
  8
0
 10
-3.3
 11
-2.2
 20
204
 21
204
  0
LINE
  8
0
 10
-2.2
 11
-0.1
 20
204
 21
198
  0
LINE
  8
0
 10
-0.1
 11
0
 20
198
 21
198
  0
LINE
  8
0
 10
0
 11
0
 20
198
 21
204
  0
LINE
  8
0
 10
0
 11
6.5
 20
204
 21
204
  0
LINE
  8
0
 10
6.5
 11
6.5
 20
204
 21
194
  0
LINE
  8
0
 10
6.5
 11
9.25
 20
194
 21
194
  0
LINE
  8
0
 10
9.25
 11
9.25
 20
194
 21
204
  0
LINE
  8
0
 10
9.25
 11
15
 20
204
 21
204
  0
LINE
  8
0
 10
15
 11
15
 20
204
 21
0
  0
LINE
  8
0
 10
15
 11
9.25
 20
0
 21
0
  0
LINE
  8
0
 10
9.25
 11
9.25
 20
0
 21
10
  0
LINE
  8
0
 10
9.25
 11
6.5
 20
10
 21
10
  0
LINE
  8
0
 10
6.5
 11
6.5
 20
10
 21
0
  0
LINE
  8
0
 10
6.5
 11
0
 20
0
 21
0
  0
LINE
  8
0
 10
0
 11
-60
 20
0
 21
0
  0
LINE
  8
0
 10
40
 11
40
 20
0
 21
18.125
  0
LINE
  8
0
 10
40
 11
50
 20
18.125
 21
18.125
  0
LINE
  8
0
 10
50
 11
50
 20
18.125
 21
20.875
  0
LINE
  8
0
 10
50
 11
40
 20
20.875
 21
20.875
  0
LINE
  8
0
 10
40
 11
40
 20
20.875
 21
183.125
  0
LINE
  8
0
 10
40
 11
50
 20
183.125
 21
183.125
  0
LINE
  8
0
 10
50
 11
50
 20
183.125
 21
185.875
  0
LINE
  8
0
 10
50
 11
40
 20
185.875
 21
185.875
  0
LINE
  8
0
 10
40
 11
40
 20
185.875
 21
204
  0
LINE
  8
0
 10
40
 11
60
 20
204
 21
204
  0
LINE
  8
0
 10
60
 11
60
 20
204
 21
0
  0
LINE
  8
0
 10
60
 11
40
 20
0
 21
0
  0
LINE
  8
0
 10
67.494
 11
67.494
 20
0
 21
51
  0
LINE
  8
0
 10
67.494
 11
75.994
 20
51
 21
51
  0
LINE
  8
0
 10
75.994
 11
75.994
 20
51
 21
153
  0
LINE
  8
0
 10
75.994
 11
67.494
 20
153
 21
153
  0
LINE
  8
0
 10
67.494
 11
67.494
 20
153
 21
204
  0
LINE
  8
0
 10
67.494
 11
85.994
 20
204
 21
204
  0
LINE
  8
0
 10
85.994
 11
85.994
 20
204
 21
0
  0
LINE
  8
0
 10
85.994
 11
67.494
 20
0
 21
0
  0
LINE
  8
0
 10
70.494
 11
70.494
 20
17.95
 21
21.05
  0
LINE
  8
0
 10
70.494
 11
75.994
 20
21.05
 21
21.05
  0
LINE
  8
0
 10
75.994
 11
75.994
 20
21.05
 21
17.95
  0
LINE
  8
0
 10
75.994
 11
70.494
 20
17.95
 21
17.95
  0
LINE
  8
0
 10
70.494
 11
70.494
 20
182.95
 21
186.05
  0
LINE
  8
0
 10
70.494
 11
75.994
 20
186.05
 21
186.05
  0
LINE
  8
0
 10
75.994
 11
75.994
 20
186.05
 21
182.95
  0
LINE
  8
0
 10
75.994
 11
70.494
 20
182.95
 21
182.95
  0
LINE
  8
0
 10
86
 11
86
 20
0
 21
204
  0
LINE
  8
0
 10
86
 11
140
 20
204
 21
204
  0
LINE
  8
0
 10
140
 11
140
 20
204
 21
0
  0
LINE
  8
0
 10
140
 11
86
 20
0
 21
0
  0
LINE
  8
0
 10
140.006
 11
140.006
 20
0
 21
204
  0
LINE
  8
0
 10
140.006
 11
150.006
 20
204
 21
204
  0
LINE
  8
0
 10
150.006
 11
150.006
 20
204
 21
0
  0
LINE
  8
0
 10
150.006
 11
140.006
 20
0
 21
0
  0
LINE
  8
0
 10
160
 11
160
 20
0
 21
23.625
  0
LINE
  8
0
 10
160
 11
170
 20
23.625
 21
23.625
  0
LINE
  8
0
 10
170
 11
170
 20
23.625
 21
26.375
  0
LINE
  8
0
 10
170
 11
160
 20
26.375
 21
26.375
  0
LINE
  8
0
 10
160
 11
160
 20
26.375
 21
188.625
  0
LINE
  8
0
 10
160
 11
170
 20
188.625
 21
188.625
  0
LINE
  8
0
 10
170
 11
170
 20
188.625
 21
191.375
  0
LINE
  8
0
 10
170
 11
160
 20
191.375
 21
191.375
  0
LINE
  8
0
 10
160
 11
160
 20
191.375
 21
215
  0
LINE
  8
0
 10
160
 11
200
 20
215
 21
215
  0
LINE
  8
0
 10
200
 11
200
 20
215
 21
191.375
  0
LINE
  8
0
 10
200
 11
190
 20
191.375
 21
191.375
  0
LINE
  8
0
 10
190
 11
190
 20
191.375
 21
188.625
  0
LINE
  8
0
 10
190
 11
200
 20
188.625
 21
188.625
  0
LINE
  8
0
 10
200
 11
200
 20
188.625
 21
26.375
  0
LINE
  8
0
 10
200
 11
190
 20
26.375
 21
26.375
  0
LINE
  8
0
 10
190
 11
190
 20
26.375
 21
23.625
  0
LINE
  8
0
 10
190
 11
200
 20
23.625
 21
23.625
  0
LINE
  8
0
 10
200
 11
200
 20
23.625
 21
0
  0
LINE
  8
0
 10
200
 11
160
 20
0
 21
0
  0
ENDSEC
  0
SECTION
  2
OBJECTS
  0
DICTIONARY
  0
ENDSEC
  0
EOF
