  0
SECTION
  2
BLOCKS
  0
ENDSEC
  0
SECTION
  2
ENTITIES
  0
LINE
  8
0
 10
-179.089
 11
-179.089
 20
40
 21
48
  0
LINE
  8
0
 10
-179.089
 11
-120
 20
48
 21
58.419
  0
LINE
  8
0
 10
-120
 11
-120
 20
58.419
 21
68.419
  0
LINE
  8
0
 10
-120
 11
-123.3
 20
68.419
 21
80.419
  0
LINE
  8
0
 10
-123.3
 11
-121.5
 20
80.419
 21
80.319
  0
LINE
  8
0
 10
-121.5
 11
-120.1
 20
80.319
 21
74.419
  0
LINE
  8
0
 10
-120.1
 11
-120
 20
74.419
 21
74.419
  0
LINE
  8
0
 10
-120
 11
-120
 20
74.419
 21
118.419
  0
LINE
  8
0
 10
-120
 11
-179.089
 20
118.419
 21
118.419
  0
LINE
  8
0
 10
-179.089
 11
-179.089
 20
118.419
 21
126.419
  0
LINE
  8
0
 10
-179.089
 11
-120
 20
126.419
 21
136.838
  0
LINE
  8
0
 10
-120
 11
-120
 20
136.838
 21
146.838
  0
LINE
  8
0
 10
-120
 11
-123.3
 20
146.838
 21
158.838
  0
LINE
  8
0
 10
-123.3
 11
-121.5
 20
158.838
 21
158.738
  0
LINE
  8
0
 10
-121.5
 11
-120.1
 20
158.738
 21
152.838
  0
LINE
  8
0
 10
-120.1
 11
-120
 20
152.838
 21
152.838
  0
LINE
  8
0
 10
-120
 11
-120
 20
152.838
 21
196.838
  0
LINE
  8
0
 10
-120
 11
-179.089
 20
196.838
 21
196.838
  0
LINE
  8
0
 10
-179.089
 11
-179.089
 20
196.838
 21
204.838
  0
LINE
  8
0
 10
-179.089
 11
-120
 20
204.838
 21
215.257
  0
LINE
  8
0
 10
-120
 11
-120
 20
215.257
 21
225.257
  0
LINE
  8
0
 10
-120
 11
-123.3
 20
225.257
 21
237.257
  0
LINE
  8
0
 10
-123.3
 11
-121.5
 20
237.257
 21
237.157
  0
LINE
  8
0
 10
-121.5
 11
-120.1
 20
237.157
 21
231.257
  0
LINE
  8
0
 10
-120.1
 11
-120
 20
231.257
 21
231.257
  0
LINE
  8
0
 10
-120
 11
-120
 20
231.257
 21
237.257
  0
LINE
  8
0
 10
-120
 11
-111
 20
237.257
 21
237.257
  0
LINE
  8
0
 10
-111
 11
-111
 20
237.257
 21
227.257
  0
LINE
  8
0
 10
-111
 11
-108.45
 20
227.257
 21
227.257
  0
LINE
  8
0
 10
-108.45
 11
-108.45
 20
227.257
 21
237.257
  0
LINE
  8
0
 10
-108.45
 11
-100
 20
237.257
 21
237.257
  0
LINE
  8
0
 10
-100
 11
-100
 20
237.257
 21
0
  0
LINE
  8
0
 10
-100
 11
-108.45
 20
0
 21
0
  0
LINE
  8
0
 10
-108.45
 11
-108.45
 20
0
 21
10
  0
LINE
  8
0
 10
-108.45
 11
-111
 20
10
 21
10
  0
LINE
  8
0
 10
-111
 11
-111
 20
10
 21
0
  0
LINE
  8
0
 10
-111
 11
-120
 20
0
 21
0
  0
LINE
  8
0
 10
-120
 11
-120
 20
0
 21
40
  0
LINE
  8
0
 10
-120
 11
-179.089
 20
40
 21
40
  0
LINE
  8
0
 10
-90
 11
-62.852
 20
0
 21
50
  0
LINE
  8
0
 10
-62.852
 11
-59.089
 20
50
 21
50
  0
LINE
  8
0
 10
-59.089
 11
-59.089
 20
50
 21
58
  0
LINE
  8
0
 10
-59.089
 11
0
 20
58
 21
68.419
  0
LINE
  8
0
 10
0
 11
0
 20
68.419
 21
78.419
  0
LINE
  8
0
 10
0
 11
-3.3
 20
78.419
 21
90.419
  0
LINE
  8
0
 10
-3.3
 11
-1.5
 20
90.419
 21
90.319
  0
LINE
  8
0
 10
-1.5
 11
-0.1
 20
90.319
 21
84.419
  0
LINE
  8
0
 10
-0.1
 11
0
 20
84.419
 21
84.419
  0
LINE
  8
0
 10
0
 11
0
 20
84.419
 21
128.419
  0
LINE
  8
0
 10
0
 11
-59.089
 20
128.419
 21
128.419
  0
LINE
  8
0
 10
-59.089
 11
-59.089
 20
128.419
 21
136.419
  0
LINE
  8
0
 10
-59.089
 11
0
 20
136.419
 21
146.838
  0
LINE
  8
0
 10
0
 11
0
 20
146.838
 21
156.838
  0
LINE
  8
0
 10
0
 11
-3.3
 20
156.838
 21
168.838
  0
LINE
  8
0
 10
-3.3
 11
-1.5
 20
168.838
 21
168.738
  0
LINE
  8
0
 10
-1.5
 11
-0.1
 20
168.738
 21
162.838
  0
LINE
  8
0
 10
-0.1
 11
0
 20
162.838
 21
162.838
  0
LINE
  8
0
 10
0
 11
0
 20
162.838
 21
206.838
  0
LINE
  8
0
 10
0
 11
-59.089
 20
206.838
 21
206.838
  0
LINE
  8
0
 10
-59.089
 11
-59.089
 20
206.838
 21
214.838
  0
LINE
  8
0
 10
-59.089
 11
0
 20
214.838
 21
225.257
  0
LINE
  8
0
 10
0
 11
0
 20
225.257
 21
235.257
  0
LINE
  8
0
 10
0
 11
-3.3
 20
235.257
 21
247.257
  0
LINE
  8
0
 10
-3.3
 11
-1.5
 20
247.257
 21
247.157
  0
LINE
  8
0
 10
-1.5
 11
-0.1
 20
247.157
 21
241.257
  0
LINE
  8
0
 10
-0.1
 11
0
 20
241.257
 21
241.257
  0
LINE
  8
0
 10
0
 11
0
 20
241.257
 21
247.257
  0
LINE
  8
0
 10
0
 11
9
 20
247.257
 21
247.257
  0
LINE
  8
0
 10
9
 11
9
 20
247.257
 21
237.257
  0
LINE
  8
0
 10
9
 11
11.55
 20
237.257
 21
237.257
  0
LINE
  8
0
 10
11.55
 11
11.55
 20
237.257
 21
247.257
  0
LINE
  8
0
 10
11.55
 11
20
 20
247.257
 21
247.257
  0
LINE
  8
0
 10
20
 11
20
 20
247.257
 21
0
  0
LINE
  8
0
 10
20
 11
11.55
 20
0
 21
0
  0
LINE
  8
0
 10
11.55
 11
11.55
 20
0
 21
10
  0
LINE
  8
0
 10
11.55
 11
9
 20
10
 21
10
  0
LINE
  8
0
 10
9
 11
9
 20
10
 21
0
  0
LINE
  8
0
 10
9
 11
-90
 20
0
 21
0
  0
LINE
  8
0
 10
40
 11
40
 20
0
 21
26.125
  0
LINE
  8
0
 10
40
 11
50
 20
26.125
 21
26.125
  0
LINE
  8
0
 10
50
 11
50
 20
26.125
 21
28.675
  0
LINE
  8
0
 10
50
 11
40
 20
28.675
 21
28.675
  0
LINE
  8
0
 10
40
 11
40
 20
28.675
 21
191.125
  0
LINE
  8
0
 10
40
 11
50
 20
191.125
 21
191.125
  0
LINE
  8
0
 10
50
 11
50
 20
191.125
 21
193.675
  0
LINE
  8
0
 10
50
 11
40
 20
193.675
 21
193.675
  0
LINE
  8
0
 10
40
 11
40
 20
193.675
 21
220
  0
LINE
  8
0
 10
40
 11
60
 20
220
 21
220
  0
LINE
  8
0
 10
60
 11
60
 20
220
 21
0
  0
LINE
  8
0
 10
60
 11
40
 20
0
 21
0
  0
LINE
  8
0
 10
67.494
 11
67.494
 20
22.95
 21
32.05
  0
LINE
  8
0
 10
67.494
 11
75.994
 20
32.05
 21
32.05
  0
LINE
  8
0
 10
75.994
 11
75.994
 20
32.05
 21
187.95
  0
LINE
  8
0
 10
75.994
 11
67.494
 20
187.95
 21
187.95
  0
LINE
  8
0
 10
67.494
 11
67.494
 20
187.95
 21
197.05
  0
LINE
  8
0
 10
67.494
 11
75.994
 20
197.05
 21
197.05
  0
LINE
  8
0
 10
75.994
 11
75.994
 20
197.05
 21
220
  0
LINE
  8
0
 10
75.994
 11
85.994
 20
220
 21
220
  0
LINE
  8
0
 10
85.994
 11
85.994
 20
220
 21
0
  0
LINE
  8
0
 10
85.994
 11
75.994
 20
0
 21
0
  0
LINE
  8
0
 10
75.994
 11
75.994
 20
0
 21
22.95
  0
LINE
  8
0
 10
75.994
 11
67.494
 20
22.95
 21
22.95
  0
LINE
  8
0
 10
70.494
 11
70.494
 20
25.95
 21
29.05
  0
LINE
  8
0
 10
70.494
 11
75.994
 20
29.05
 21
29.05
  0
LINE
  8
0
 10
75.994
 11
75.994
 20
29.05
 21
25.95
  0
LINE
  8
0
 10
75.994
 11
70.494
 20
25.95
 21
25.95
  0
LINE
  8
0
 10
70.494
 11
70.494
 20
190.95
 21
194.05
  0
LINE
  8
0
 10
70.494
 11
75.994
 20
194.05
 21
194.05
  0
LINE
  8
0
 10
75.994
 11
75.994
 20
194.05
 21
190.95
  0
LINE
  8
0
 10
75.994
 11
70.494
 20
190.95
 21
190.95
  0
LINE
  8
0
 10
86
 11
86
 20
0
 21
220
  0
LINE
  8
0
 10
86
 11
115
 20
220
 21
220
  0
LINE
  8
0
 10
115
 11
115
 20
220
 21
0
  0
LINE
  8
0
 10
115
 11
86
 20
0
 21
0
  0
LINE
  8
0
 10
115.006
 11
115.006
 20
0
 21
220
  0
LINE
  8
0
 10
115.006
 11
125.006
 20
220
 21
220
  0
LINE
  8
0
 10
125.006
 11
125.006
 20
220
 21
0
  0
LINE
  8
0
 10
125.006
 11
115.006
 20
0
 21
0
  0
LINE
  8
0
 10
160
 11
160
 20
0
 21
23.625
  0
LINE
  8
0
 10
160
 11
170
 20
23.625
 21
23.625
  0
LINE
  8
0
 10
170
 11
170
 20
23.625
 21
26.175
  0
LINE
  8
0
 10
170
 11
160
 20
26.175
 21
26.175
  0
LINE
  8
0
 10
160
 11
160
 20
26.175
 21
188.625
  0
LINE
  8
0
 10
160
 11
170
 20
188.625
 21
188.625
  0
LINE
  8
0
 10
170
 11
170
 20
188.625
 21
191.175
  0
LINE
  8
0
 10
170
 11
160
 20
191.175
 21
191.175
  0
LINE
  8
0
 10
160
 11
160
 20
191.175
 21
215
  0
LINE
  8
0
 10
160
 11
200
 20
215
 21
215
  0
LINE
  8
0
 10
200
 11
200
 20
215
 21
191.175
  0
LINE
  8
0
 10
200
 11
190
 20
191.175
 21
191.175
  0
LINE
  8
0
 10
190
 11
190
 20
191.175
 21
188.625
  0
LINE
  8
0
 10
190
 11
200
 20
188.625
 21
188.625
  0
LINE
  8
0
 10
200
 11
200
 20
188.625
 21
26.175
  0
LINE
  8
0
 10
200
 11
190
 20
26.175
 21
26.175
  0
LINE
  8
0
 10
190
 11
190
 20
26.175
 21
23.625
  0
LINE
  8
0
 10
190
 11
200
 20
23.625
 21
23.625
  0
LINE
  8
0
 10
200
 11
200
 20
23.625
 21
0
  0
LINE
  8
0
 10
200
 11
160
 20
0
 21
0
  0
ENDSEC
  0
SECTION
  2
OBJECTS
  0
DICTIONARY
  0
ENDSEC
  0
EOF
