  0
SECTION
  2
BLOCKS
  0
ENDSEC
  0
SECTION
  2
ENTITIES
  0
LINE
  8
0
 10
-90
 11
-68.282
 20
0
 21
40
  0
LINE
  8
0
 10
-68.282
 11
-68.13
 20
40
 21
40
  0
LINE
  8
0
 10
-68.13
 11
-68.13
 20
40
 21
53.909
  0
LINE
  8
0
 10
-68.13
 11
-60.13
 20
53.909
 21
53.909
  0
LINE
  8
0
 10
-60.13
 11
-59.088
 20
53.909
 21
48
  0
LINE
  8
0
 10
-59.088
 11
0
 20
48
 21
58.419
  0
LINE
  8
0
 10
0
 11
0
 20
58.419
 21
118.419
  0
LINE
  8
0
 10
0
 11
-68.13
 20
118.419
 21
118.419
  0
LINE
  8
0
 10
-68.13
 11
-68.13
 20
118.419
 21
132.328
  0
LINE
  8
0
 10
-68.13
 11
-60.13
 20
132.328
 21
132.328
  0
LINE
  8
0
 10
-60.13
 11
-59.088
 20
132.328
 21
126.419
  0
LINE
  8
0
 10
-59.088
 11
0
 20
126.419
 21
136.838
  0
LINE
  8
0
 10
0
 11
0
 20
136.838
 21
196.838
  0
LINE
  8
0
 10
0
 11
-68.13
 20
196.838
 21
196.838
  0
LINE
  8
0
 10
-68.13
 11
-68.13
 20
196.838
 21
210.747
  0
LINE
  8
0
 10
-68.13
 11
-60.13
 20
210.747
 21
210.747
  0
LINE
  8
0
 10
-60.13
 11
-59.088
 20
210.747
 21
204.838
  0
LINE
  8
0
 10
-59.088
 11
0
 20
204.838
 21
215.257
  0
LINE
  8
0
 10
0
 11
0
 20
215.257
 21
221.257
  0
LINE
  8
0
 10
0
 11
9
 20
221.257
 21
221.257
  0
LINE
  8
0
 10
9
 11
9
 20
221.257
 21
211.257
  0
LINE
  8
0
 10
9
 11
11.55
 20
211.257
 21
211.257
  0
LINE
  8
0
 10
11.55
 11
11.55
 20
211.257
 21
221.257
  0
LINE
  8
0
 10
11.55
 11
20
 20
221.257
 21
221.257
  0
LINE
  8
0
 10
20
 11
20
 20
221.257
 21
0
  0
LINE
  8
0
 10
20
 11
11.55
 20
0
 21
0
  0
LINE
  8
0
 10
11.55
 11
11.55
 20
0
 21
10
  0
LINE
  8
0
 10
11.55
 11
9
 20
10
 21
10
  0
LINE
  8
0
 10
9
 11
9
 20
10
 21
0
  0
LINE
  8
0
 10
9
 11
-90
 20
0
 21
0
  0
LINE
  8
0
 10
40
 11
40
 20
0
 21
6
  0
LINE
  8
0
 10
40
 11
50
 20
6
 21
6
  0
LINE
  8
0
 10
50
 11
50
 20
6
 21
8.55
  0
LINE
  8
0
 10
50
 11
40
 20
8.55
 21
8.55
  0
LINE
  8
0
 10
40
 11
40
 20
8.55
 21
208.75
  0
LINE
  8
0
 10
40
 11
50
 20
208.75
 21
208.75
  0
LINE
  8
0
 10
50
 11
50
 20
208.75
 21
211.3
  0
LINE
  8
0
 10
50
 11
40
 20
211.3
 21
211.3
  0
LINE
  8
0
 10
40
 11
40
 20
211.3
 21
217.5
  0
LINE
  8
0
 10
40
 11
60
 20
217.5
 21
217.5
  0
LINE
  8
0
 10
60
 11
60
 20
217.5
 21
0
  0
LINE
  8
0
 10
60
 11
40
 20
0
 21
0
  0
LINE
  8
0
 10
95.994
 11
95.994
 20
0
 21
300
  0
LINE
  8
0
 10
95.994
 11
105.994
 20
300
 21
300
  0
LINE
  8
0
 10
105.994
 11
105.994
 20
300
 21
0
  0
LINE
  8
0
 10
105.994
 11
95.994
 20
0
 21
0
  0
LINE
  8
0
 10
106
 11
106
 20
0
 21
300
  0
LINE
  8
0
 10
106
 11
135
 20
300
 21
300
  0
LINE
  8
0
 10
135
 11
135
 20
300
 21
0
  0
LINE
  8
0
 10
135
 11
106
 20
0
 21
0
  0
LINE
  8
0
 10
135.006
 11
135.006
 20
0
 21
300
  0
LINE
  8
0
 10
135.006
 11
145.006
 20
300
 21
300
  0
LINE
  8
0
 10
145.006
 11
145.006
 20
300
 21
0
  0
LINE
  8
0
 10
145.006
 11
135.006
 20
0
 21
0
  0
ENDSEC
  0
SECTION
  2
OBJECTS
  0
DICTIONARY
  0
ENDSEC
  0
EOF
